<svg width="21" height="25" viewBox="0 0 21 25" fill="none" xmlns="http://www.w3.org/2000/svg">
<path d="M5.32078 11.3255C5.7112 12.0171 6.18806 12.6445 6.75137 13.2079C7.31468 13.7712 7.94213 14.248 8.63373 14.6384L9.36993 13.6011C9.49264 13.4226 9.65717 13.311 9.86353 13.2664C10.0699 13.2218 10.2679 13.2497 10.4575 13.3501C11.6511 14.0082 12.9283 14.3875 14.2892 14.4879C14.5011 14.5102 14.6824 14.5994 14.8329 14.7556C14.9835 14.9117 15.0588 15.1014 15.0588 15.3245V19.0557C15.0588 19.2676 14.9863 19.4545 14.8413 19.6162C14.6963 19.778 14.5178 19.87 14.3059 19.8923C13.8597 19.9369 13.4135 19.9592 12.9673 19.9592C11.2049 19.9592 9.52052 19.619 7.91425 18.9386C6.36375 18.2804 4.99172 17.3546 3.79817 16.1611C2.60462 14.9675 1.67878 13.5955 1.02065 12.045C0.340218 10.4387 0 8.75435 0 6.99191C0 6.54572 0.0223094 6.09953 0.0669281 5.65335C0.0892375 5.44141 0.181264 5.26293 0.343007 5.11792C0.504749 4.97291 0.69159 4.9004 0.903529 4.9004H4.63477C4.85786 4.9004 5.04749 4.9757 5.20366 5.12629C5.35983 5.27688 5.44906 5.45814 5.47137 5.67008C5.57176 7.03095 5.95102 8.30816 6.60915 9.50171C6.70954 9.69134 6.73743 9.88934 6.69281 10.0957C6.64819 10.3021 6.53664 10.4666 6.35817 10.5893L5.32078 11.3255ZM3.21255 10.7733L4.80209 9.63557C4.3559 8.66511 4.04915 7.64446 3.88183 6.57361H1.6732V6.99191C1.6732 8.5201 1.9688 9.98694 2.56 11.3924C3.12889 12.7421 3.93481 13.9385 4.97778 14.9815C6.02074 16.0244 7.21708 16.8303 8.5668 17.3992C9.97229 17.9904 11.4391 18.286 12.9673 18.286H13.3856V16.0774C12.3148 15.9101 11.2941 15.6033 10.3237 15.1571L9.18588 16.7467C8.72854 16.5682 8.28235 16.3563 7.84732 16.1109L7.79712 16.0941C6.98283 15.6256 6.24105 15.0567 5.57176 14.3875C4.90248 13.7182 4.33359 12.9764 3.8651 12.1621L3.84837 12.1119C3.60296 11.6769 3.39102 11.2307 3.21255 10.7733Z" fill="#F53E32"/>
</svg>
