<svg width="19" height="19" viewBox="0 0 19 19" fill="none" xmlns="http://www.w3.org/2000/svg">
<path d="M2.22852 12.5625V2.0625H0.478516V0.3125H3.10352C3.34852 0.3125 3.5556 0.397083 3.72477 0.56625C3.89393 0.735416 3.97852 0.942499 3.97852 1.1875V11.6875H14.8635L16.6135 4.6875H5.72852V2.9375H17.7335C17.9785 2.9375 18.1856 3.02208 18.3548 3.19125C18.5239 3.36042 18.6085 3.5675 18.6085 3.8125C18.6085 3.8825 18.5968 3.9525 18.5735 4.0225L16.386 12.7725C16.3393 12.9708 16.2373 13.1312 16.0798 13.2537C15.9223 13.3762 15.7443 13.4375 15.546 13.4375H3.10352C2.85852 13.4375 2.65143 13.3529 2.48227 13.1838C2.3131 13.0146 2.22852 12.8075 2.22852 12.5625ZM3.97852 18.6875C3.66352 18.6875 3.37185 18.6088 3.10352 18.4513C2.83518 18.2937 2.62227 18.0808 2.46477 17.8125C2.30727 17.5442 2.22852 17.2525 2.22852 16.9375C2.22852 16.6225 2.30727 16.3308 2.46477 16.0625C2.62227 15.7942 2.83518 15.5812 3.10352 15.4237C3.37185 15.2662 3.66352 15.1875 3.97852 15.1875C4.29352 15.1875 4.58518 15.2662 4.85352 15.4237C5.12185 15.5812 5.33477 15.7942 5.49227 16.0625C5.64977 16.3308 5.72852 16.6225 5.72852 16.9375C5.72852 17.2525 5.64977 17.5442 5.49227 17.8125C5.33477 18.0808 5.12185 18.2937 4.85352 18.4513C4.58518 18.6088 4.29352 18.6875 3.97852 18.6875ZM14.4785 18.6875C14.1635 18.6875 13.8718 18.6088 13.6035 18.4513C13.3352 18.2937 13.1223 18.0808 12.9648 17.8125C12.8073 17.5442 12.7285 17.2525 12.7285 16.9375C12.7285 16.6225 12.8073 16.3308 12.9648 16.0625C13.1223 15.7942 13.3352 15.5812 13.6035 15.4237C13.8718 15.2662 14.1635 15.1875 14.4785 15.1875C14.7935 15.1875 15.0852 15.2662 15.3535 15.4237C15.6218 15.5812 15.8348 15.7942 15.9923 16.0625C16.1498 16.3308 16.2285 16.6225 16.2285 16.9375C16.2285 17.2525 16.1498 17.5442 15.9923 17.8125C15.8348 18.0808 15.6218 18.2937 15.3535 18.4513C15.0852 18.6088 14.7935 18.6875 14.4785 18.6875Z" fill="black"/>
</svg>
