<svg width="145" height="66" viewBox="0 0 145 66" fill="none" xmlns="http://www.w3.org/2000/svg">
<path d="M54.7093 39.7372C54.4746 39.7372 54.2399 39.6412 54.0052 39.4492C53.7812 39.2679 53.5839 38.9639 53.4132 38.5372C53.2426 38.1105 53.1252 37.5452 53.0613 36.8412C53.0079 36.4145 52.9013 36.0785 52.7412 35.8332C52.6026 35.6412 52.5333 35.4385 52.5333 35.2252C52.5333 35.0652 52.5973 34.8785 52.7252 34.6652C52.7892 34.5692 52.8319 34.4679 52.8532 34.3612C52.8853 34.2545 52.9013 34.0679 52.9013 33.8012L52.8532 31.4332C52.8532 31.1239 52.7572 30.8412 52.5652 30.5852C52.3519 30.2865 52.2452 30.0145 52.2452 29.7692C52.2452 29.5772 52.2879 29.4012 52.3733 29.2412C52.4586 29.0812 52.5546 28.9265 52.6612 28.7772C52.7679 28.6279 52.8532 28.4839 52.9173 28.3452C53.0026 28.1425 53.1519 27.9772 53.3652 27.8492C53.5786 27.7212 53.7973 27.6572 54.0213 27.6572C54.1919 27.6572 54.3519 27.6999 54.5012 27.7852C54.6506 27.8599 54.9172 27.8972 55.3012 27.8972C55.6959 27.8972 56.1706 27.8759 56.7253 27.8332C57.3866 27.7799 58.0426 27.7532 58.6932 27.7532C59.1093 27.7532 59.4986 27.7745 59.8613 27.8172C60.2239 27.8599 60.5333 27.9399 60.7893 28.0572C61.0559 28.1639 61.2532 28.3132 61.3813 28.5052C61.5092 28.6865 61.5732 28.8679 61.5732 29.0492C61.5732 29.2945 61.4772 29.5132 61.2852 29.7052C61.0933 29.8865 60.8212 29.9772 60.4692 29.9772L60.1973 29.9612C59.7706 29.9079 59.3386 29.8812 58.9012 29.8812C58.0159 29.8812 57.1306 29.9505 56.2453 30.0892H56.2292C55.9306 30.1105 55.7386 30.1585 55.6533 30.2332C55.5679 30.2972 55.5253 30.4839 55.5253 30.7932L55.5412 31.9132H55.6053C55.6053 32.1905 55.5999 32.4305 55.5893 32.6332V33.0012C55.5893 33.2572 55.6106 33.4279 55.6533 33.5132C55.6959 33.5879 55.7866 33.6252 55.9253 33.6252C56.0319 33.6252 56.1546 33.6145 56.2932 33.5932C56.4426 33.5719 56.6079 33.5559 56.7893 33.5452L57.5412 33.4812C58.0959 33.4279 58.5226 33.4012 58.8212 33.4012C59.1839 33.4012 59.4772 33.4705 59.7012 33.6092C60.0639 33.8652 60.2453 34.1479 60.2453 34.4572C60.2453 34.7239 60.1226 34.9692 59.8772 35.1932C59.6426 35.4172 59.3013 35.5612 58.8533 35.6252L57.5892 35.7692C56.7999 35.8332 56.2666 35.9079 55.9893 35.9932C55.7119 36.0785 55.5732 36.2705 55.5732 36.5692C55.5732 36.7505 55.6052 37.0012 55.6693 37.3212C55.7652 37.8652 55.8132 38.2225 55.8132 38.3932C55.8132 38.7772 55.7012 39.0972 55.4772 39.3532C55.2533 39.6092 54.9973 39.7372 54.7093 39.7372ZM76.0239 39.7532C75.4905 39.7532 74.9839 39.6305 74.5039 39.3852C74.0239 39.1399 73.6132 38.7559 73.2719 38.2332C72.7599 37.4225 72.5039 36.4039 72.5039 35.1772C72.5039 34.6012 72.5465 34.0145 72.6319 33.4172C72.7172 32.8092 72.8132 32.2119 72.9199 31.6252C73.0159 31.1025 73.1012 30.6012 73.1759 30.1212C73.2505 29.6305 73.2879 29.1772 73.2879 28.7612V28.6492C73.2772 28.3505 73.0639 28.2012 72.6479 28.2012C72.1145 28.2012 71.4105 28.3985 70.5359 28.7932C69.6719 29.1879 68.9732 29.5932 68.4399 30.0092C68.1092 30.2545 67.9439 30.4625 67.9439 30.6332C67.9439 30.7185 67.9919 30.8199 68.0879 30.9372C68.1945 31.0439 68.3385 31.1772 68.5199 31.3372C68.8079 31.5825 69.1865 31.9612 69.6559 32.4732C70.3599 33.2625 70.7119 34.0999 70.7119 34.9852C70.7119 35.9665 70.3439 36.8305 69.6079 37.5772C68.6479 38.5479 67.4959 39.0332 66.1519 39.0332C65.2559 39.0332 64.5359 38.8039 63.9919 38.3452C63.4479 37.8759 63.0532 37.2679 62.8079 36.5212C62.5625 35.7745 62.4399 34.9905 62.4399 34.1692C62.4399 33.2839 62.5572 32.4305 62.7919 31.6092C63.0265 30.7772 63.3465 30.0945 63.7519 29.5612C64.1572 29.0279 64.6052 28.7612 65.0959 28.7612C65.2345 28.7612 65.3732 28.7825 65.5119 28.8252H65.5279C65.6452 28.8252 65.9279 28.6545 66.3759 28.3132C66.7812 28.0039 67.2985 27.6519 67.9279 27.2572C68.5679 26.8519 69.2825 26.4999 70.0719 26.2012C70.8719 25.8919 71.7145 25.7372 72.5999 25.7372C72.8985 25.7372 73.2025 25.7585 73.5119 25.8012C74.2479 25.9292 74.7812 26.1745 75.1119 26.5372C75.4532 26.8892 75.6719 27.2892 75.7679 27.7372C75.8745 28.1852 75.9332 28.6119 75.9439 29.0172C75.9652 29.3265 75.9972 29.5825 76.0399 29.7852C76.0932 29.9879 76.1945 30.1052 76.3439 30.1372C77.1332 30.2759 77.8905 30.5585 78.6159 30.9852C79.3412 31.4119 79.9439 31.9505 80.4239 32.6012C80.9039 33.2412 81.1439 33.9452 81.1439 34.7132C81.1439 35.0652 81.0852 35.4225 80.9679 35.7852C80.5305 36.9905 79.8425 37.9505 78.9039 38.6652C77.9652 39.3905 77.0052 39.7532 76.0239 39.7532ZM66.5199 36.0572C66.8292 36.0572 67.1119 35.9345 67.3679 35.6892C67.6345 35.4332 67.7679 35.1559 67.7679 34.8572C67.7679 34.7292 67.7359 34.6012 67.6719 34.4732C67.5545 34.2919 67.2452 33.9345 66.7439 33.4012C66.1359 32.7612 65.7305 32.4412 65.5279 32.4412C65.3785 32.4412 65.3039 32.8785 65.3039 33.7532C65.3039 34.6172 65.4265 35.2199 65.6719 35.5612C65.9279 35.8919 66.2105 36.0572 66.5199 36.0572ZM76.2959 36.8092C76.7012 36.8092 77.1119 36.5745 77.5279 36.1052C77.9439 35.6252 78.1519 35.1559 78.1519 34.6972C78.1519 34.4412 78.0665 34.2172 77.8959 34.0252C77.3092 33.3959 76.5679 32.9319 75.6719 32.6332C75.4799 33.6145 75.3839 34.4092 75.3839 35.0172C75.3839 35.6785 75.4745 36.1425 75.6559 36.4092C75.8372 36.6759 76.0505 36.8092 76.2959 36.8092ZM91.8398 39.5772C91.4878 39.5772 91.1678 39.4225 90.8798 39.1132C90.6345 38.7932 90.4638 38.4519 90.3678 38.0892C90.2825 37.7159 90.2238 37.3159 90.1918 36.8892C90.1598 36.4519 90.0905 35.9825 89.9838 35.4812C89.8451 35.5025 89.7011 35.6572 89.5518 35.9452C89.4238 36.2759 89.0611 36.8092 88.4638 37.5452C87.4611 38.6865 86.4531 39.2572 85.4398 39.2572C84.5651 39.2572 83.8345 38.8839 83.2478 38.1372C82.6611 37.3799 82.3678 36.4945 82.3678 35.4812C82.3678 34.8412 82.5065 34.1905 82.7838 33.5292C83.3918 32.0785 84.6558 30.9479 86.5758 30.1372C87.2905 29.8599 87.8931 29.7212 88.3838 29.7212C88.4478 29.7212 88.5065 29.7265 88.5598 29.7372H88.7038C88.8425 29.7372 88.9491 29.7052 89.0238 29.6412C89.0985 29.5665 89.1571 29.4065 89.1998 29.1612C89.2531 28.9052 89.3118 28.5105 89.3758 27.9772C89.4398 27.4439 89.5411 26.7239 89.6798 25.8172C89.7651 25.3159 89.9305 24.9479 90.1758 24.7132C90.4318 24.4679 90.7145 24.3452 91.0238 24.3452C91.3011 24.3452 91.5678 24.4359 91.8238 24.6172C92.2505 24.9799 92.5118 25.7745 92.6078 27.0012C92.6825 28.0039 92.7198 29.1399 92.7198 30.4092V31.2732C92.7198 32.4145 92.7358 33.5559 92.7678 34.6972C92.8105 35.8385 92.9065 36.9052 93.0558 37.8972C93.0771 38.0145 93.0878 38.1265 93.0878 38.2332C93.0878 38.6705 92.9598 39.0012 92.7038 39.2252C92.4478 39.4599 92.1598 39.5772 91.8398 39.5772ZM85.5358 36.6492C86.0905 36.6492 86.7358 35.9772 87.4718 34.6332C87.7385 34.1425 87.9785 33.6519 88.1918 33.1612C88.4051 32.6599 88.5118 32.2865 88.5118 32.0412C88.5118 31.8919 88.4585 31.8172 88.3518 31.8172L88.2398 31.8332C87.4398 32.1532 86.7945 32.5425 86.3038 33.0012C85.8238 33.4599 85.4718 33.9345 85.2478 34.4252C85.0345 34.9159 84.9278 35.3479 84.9278 35.7212C84.9278 35.9985 84.9811 36.2225 85.0878 36.3932C85.1945 36.5639 85.3438 36.6492 85.5358 36.6492ZM98.9666 39.8172C98.2732 39.8172 97.8199 39.1559 97.6066 37.8332C97.4572 36.9585 97.3772 35.6305 97.3666 33.8492C97.3666 32.8892 97.3346 32.0732 97.2706 31.4012C97.2172 30.7292 97.0572 30.3932 96.7906 30.3932C96.2359 30.4359 95.7559 30.5159 95.3506 30.6332C95.0199 30.7399 94.7266 30.7932 94.4706 30.7932C94.2572 30.7932 94.0706 30.7399 93.9106 30.6332C93.7506 30.5159 93.6012 30.3079 93.4626 30.0092C93.3666 29.7959 93.3186 29.6039 93.3186 29.4332C93.3186 28.9959 93.5852 28.6652 94.1186 28.4412C94.6412 28.2172 95.3186 28.0572 96.1506 27.9612C96.9826 27.8545 97.8839 27.7692 98.8546 27.7052C100.337 27.6199 101.708 27.4599 102.967 27.2252C103.084 27.2039 103.201 27.1932 103.319 27.1932C103.681 27.1932 103.975 27.2999 104.199 27.5132C104.433 27.7159 104.551 27.9505 104.551 28.2172C104.551 28.4945 104.407 28.7665 104.119 29.0332C103.841 29.2892 103.372 29.4812 102.711 29.6092C101.921 29.7479 101.297 29.8332 100.839 29.8652C100.391 29.8972 100.081 29.9505 99.9106 30.0252C99.7399 30.0999 99.6546 30.2919 99.6546 30.6012C99.6546 30.8252 99.6812 31.1345 99.7346 31.5292C99.8412 32.2225 99.9212 33.3425 99.9746 34.8892C99.9959 35.7319 100.028 36.4412 100.071 37.0172C100.113 37.5292 100.135 37.9612 100.135 38.3132C100.135 38.7399 100.081 39.0652 99.9746 39.2892C99.8679 39.5132 99.6652 39.6679 99.3666 39.7532C99.2279 39.7959 99.0946 39.8172 98.9666 39.8172ZM106.335 39.5292C105.471 39.5292 104.937 39.1719 104.735 38.4572C104.596 37.9879 104.527 37.4599 104.527 36.8732C104.527 36.4039 104.543 35.9239 104.575 35.4332C104.607 34.9852 104.623 34.5799 104.623 34.2172C104.623 33.8332 104.591 33.5132 104.527 33.2572C104.377 32.7132 104.303 32.1585 104.303 31.5932V30.8572C104.303 30.5692 104.399 30.3185 104.591 30.1052C104.793 29.8919 105.039 29.7852 105.327 29.7852C105.561 29.7852 105.812 29.8812 106.079 30.0732C106.345 30.2545 106.532 30.4999 106.639 30.8092C106.681 30.9372 106.729 31.0012 106.783 31.0012C106.868 31.0012 107.055 30.8892 107.343 30.6652C108.057 30.1212 108.751 29.7319 109.423 29.4972C110.095 29.2625 110.708 29.1452 111.263 29.1452C111.945 29.1452 112.495 29.2892 112.911 29.5772C113.337 29.8545 113.551 30.1959 113.551 30.6012C113.551 30.7505 113.519 30.9052 113.455 31.0652C113.337 31.3319 113.199 31.5132 113.039 31.6092C112.879 31.7052 112.703 31.7532 112.511 31.7532C112.351 31.7532 112.175 31.7372 111.983 31.7052C111.791 31.6625 111.593 31.6412 111.391 31.6412C111.209 31.6412 111.023 31.6732 110.831 31.7372C109.785 32.1532 109.023 32.6812 108.543 33.3212C108.073 33.9612 107.769 34.6385 107.631 35.3532C107.503 36.0572 107.433 36.7239 107.423 37.3532C107.401 37.7692 107.364 38.1425 107.311 38.4732C107.268 38.8039 107.172 39.0599 107.023 39.2412C106.884 39.4332 106.655 39.5292 106.335 39.5292ZM117.782 39.4652C116.993 39.4652 116.342 39.2465 115.83 38.8092C115.318 38.3825 114.934 37.8172 114.678 37.1132C114.433 36.4092 114.31 35.6572 114.31 34.8572C114.31 33.6625 114.572 32.5105 115.094 31.4012C115.628 30.2919 116.406 29.5025 117.43 29.0332C117.75 28.9052 118.022 28.8412 118.246 28.8412C118.502 28.8412 118.71 28.8945 118.87 29.0012C119.041 29.0972 119.196 29.2039 119.334 29.3212C119.516 29.4919 119.702 29.6039 119.894 29.6572C120.769 29.8812 121.43 30.4572 121.878 31.3852C122.326 32.3132 122.566 33.2732 122.598 34.2652C122.385 35.8972 121.814 37.1505 120.886 38.0252C119.884 38.9852 118.849 39.4652 117.782 39.4652ZM117.814 36.5212C117.921 36.5212 118.038 36.4892 118.166 36.4252C118.561 36.2012 118.876 35.8705 119.11 35.4332C119.356 34.9852 119.478 34.5212 119.478 34.0412L119.462 33.7212C119.409 33.2625 119.281 32.8519 119.078 32.4892C118.886 32.1265 118.561 31.6999 118.102 31.2092C117.761 31.4439 117.494 31.8972 117.302 32.5692C117.121 33.2412 117.03 33.9185 117.03 34.6012C117.03 35.1239 117.089 35.5772 117.206 35.9612C117.334 36.3345 117.537 36.5212 117.814 36.5212ZM128.081 40.8412C127.302 40.8412 126.635 40.2599 126.081 39.0972C125.718 38.3185 125.323 37.1399 124.897 35.5612C124.683 34.7079 124.465 33.9825 124.241 33.3852C123.985 32.6812 123.857 32.1159 123.857 31.6892C123.857 31.2625 123.953 30.9532 124.145 30.7612C124.337 30.5692 124.561 30.4732 124.817 30.4732C125.083 30.4732 125.35 30.5639 125.617 30.7452C125.883 30.9265 126.081 31.1665 126.209 31.4652C126.785 32.9479 127.206 34.1692 127.473 35.1292C127.633 35.6732 127.766 36.0999 127.873 36.4092C127.99 36.7079 128.113 36.8572 128.241 36.8572C128.422 36.8572 128.667 36.4572 128.977 35.6572C129.222 35.0492 129.745 33.5772 130.545 31.2412C130.769 30.6332 131.03 30.1959 131.329 29.9292C131.627 29.6519 131.921 29.5132 132.209 29.5132C132.497 29.5132 132.742 29.6305 132.945 29.8652C133.147 30.0892 133.249 30.3932 133.249 30.7772C133.249 30.9585 133.217 31.1559 133.153 31.3692C132.769 32.7239 132.353 34.0572 131.905 35.3692C131.467 36.6705 130.998 37.7959 130.497 38.7452C130.006 39.7052 129.494 40.3292 128.961 40.6172C128.641 40.7665 128.347 40.8412 128.081 40.8412ZM139.857 39.5932H139.409C138.182 39.5932 137.185 39.3532 136.417 38.8732C135.66 38.3932 135.1 37.7692 134.737 37.0012C134.385 36.2225 134.209 35.3905 134.209 34.5052C134.209 33.7159 134.337 32.9265 134.593 32.1372C134.86 31.3479 135.228 30.6332 135.697 29.9932C136.177 29.3425 136.748 28.8252 137.409 28.4412C138.081 28.0465 138.822 27.8492 139.633 27.8492C139.878 27.8492 140.134 27.8705 140.401 27.9132C141.361 28.0839 142.049 28.4359 142.465 28.9692C142.892 29.4919 143.105 30.0732 143.105 30.7132C143.105 31.3319 142.945 31.9399 142.625 32.5372C142.305 33.1345 141.873 33.6305 141.329 34.0252C140.785 34.4199 140.177 34.6172 139.505 34.6172C138.961 34.6172 138.39 34.4519 137.793 34.1212C137.75 34.0999 137.702 34.0732 137.649 34.0412C137.606 34.0092 137.558 33.9825 137.505 33.9612C137.462 33.9292 137.42 33.9132 137.377 33.9132C137.292 33.9132 137.249 34.0785 137.249 34.4092C137.249 35.0599 137.494 35.5985 137.985 36.0252C138.486 36.4519 139.11 36.6652 139.857 36.6652C140.593 36.6652 141.334 36.4519 142.081 36.0252C142.262 35.9292 142.438 35.8439 142.609 35.7692C142.79 35.6945 142.998 35.6572 143.233 35.6572L143.441 35.6732C143.836 35.7159 144.129 35.8332 144.321 36.0252C144.513 36.2065 144.609 36.4252 144.609 36.6812C144.609 37.0652 144.412 37.4865 144.017 37.9452C143.633 38.4039 143.084 38.7932 142.369 39.1132C141.654 39.4332 140.817 39.5932 139.857 39.5932ZM139.473 32.3612C139.537 32.3612 139.622 32.3345 139.729 32.2812C140.049 32.1212 140.284 31.9345 140.433 31.7212C140.582 31.5079 140.657 31.2999 140.657 31.0972C140.657 30.8945 140.593 30.7239 140.465 30.5852C140.337 30.4359 140.15 30.3612 139.905 30.3612C139.542 30.3612 139.148 30.5319 138.721 30.8732C138.305 31.2145 138.097 31.4759 138.097 31.6572C138.097 31.7425 138.156 31.7905 138.273 31.8012C138.636 31.8332 138.924 31.9559 139.137 32.1692C139.254 32.2972 139.366 32.3612 139.473 32.3612Z" fill="black"/>
<path d="M40.4889 43.9468C34.469 48.0474 26.2356 46.4853 22.1356 40.4662C18.0355 34.4472 19.5963 26.2135 25.6162 22.113C31.636 18.0124 39.8694 19.5745 43.9694 25.5935C48.0695 31.6126 46.5079 39.8468 40.4889 43.9468ZM26.153 22.9011C20.568 26.7054 19.1201 34.3438 22.9245 39.9289C26.7289 45.5139 34.3678 46.9626 39.952 43.1587C45.5363 39.3549 46.9857 31.7154 43.1813 26.1304C39.377 20.5453 31.738 19.0967 26.153 22.9011Z" fill="#CDCDCD"/>
<path d="M42.3491 24.212L41.9514 24.2123C41.5809 24.2124 41.2488 24.1703 40.9953 24.1236C41.031 23.8674 41.1332 23.4216 41.2135 23.119L41.3155 22.7347L40.9289 22.8264C40.4857 22.9316 40.0813 22.9604 39.8348 22.9657L39.8281 22.9442C39.7765 22.7883 39.7556 22.1569 39.7564 21.7574L39.7573 21.3601L39.4061 21.547C39.1143 21.7026 38.8316 21.8133 38.6077 21.8885C38.6389 21.5638 38.6877 21.2316 38.6892 21.2271L38.7476 20.8339L38.3739 20.9679C37.9154 21.1325 37.4927 21.2044 37.2496 21.2347C37.1889 20.8703 37.1479 20.3878 37.1475 20.3824L37.1131 19.9864L36.7799 20.2031C36.5655 20.3423 36.3548 20.4552 36.1683 20.5435C36.3113 19.8255 36.365 19.2819 36.3304 18.9258C36.2352 17.9517 36.1501 15.709 36.1368 15.3474C36.1492 15.2105 36.113 14.9487 35.7215 14.7243C35.488 14.5901 35.1754 14.4984 34.84 14.4666C34.3679 14.421 33.9296 14.5002 33.6679 14.6784C33.553 14.7567 33.4722 14.8549 33.4311 14.9648C33.2846 15.1703 33.0164 15.6644 33.1183 16.4214C33.1664 16.774 33.2651 17.1626 33.3696 17.5746C33.5309 18.2103 33.6983 18.8682 33.6602 19.3613C33.6369 19.6591 33.5125 20.1758 33.2974 20.8645C33.1113 20.7014 32.7772 20.3345 32.561 20.0805L32.3026 19.778L32.158 20.1481C32.0145 20.5165 31.8401 20.8262 31.7036 21.043C31.4343 20.8128 31.138 20.5247 31.1345 20.5213L30.8498 20.2435L30.7395 20.6256C30.6426 20.9622 30.5178 21.2563 30.4077 21.4802C30.1318 21.3521 29.7232 21.1178 29.556 21.0191L29.2139 20.8157L29.196 21.2132C29.1806 21.5511 29.131 21.8554 29.0787 22.0956C28.7378 21.9857 28.3425 21.8276 28.338 21.8261L27.9691 21.6783L28.0132 22.0735C28.0587 22.479 28.0467 22.8452 28.0266 23.0976C27.7742 23.0809 27.3012 23.0006 26.9834 22.9363L26.5941 22.8571L26.7079 23.2377C26.8235 23.6227 26.8774 23.9805 26.9017 24.2299C26.6568 24.2558 26.1567 24.2509 25.822 24.2367L25.4249 24.2196L25.5976 24.5782C25.7879 24.9727 25.9019 25.3486 25.9624 25.5927C25.6994 25.6104 25.267 25.6048 24.9678 25.5927L24.5708 25.5755L24.7437 25.9329C24.9606 26.3831 25.0771 26.8028 25.1305 27.0381C24.8838 27.0947 24.4078 27.1552 24.0836 27.185L23.6879 27.2216L23.907 27.5532C24.1477 27.9166 24.3103 28.272 24.404 28.5048C24.1886 28.5856 23.6667 28.7024 23.3203 28.7679L22.9297 28.8418L23.1793 29.1515C23.4589 29.4987 23.6549 29.8415 23.7697 30.0668C23.5255 30.1854 23.0893 30.3495 22.8208 30.4426L22.4453 30.5722L22.737 30.8419C23.0029 31.087 23.2152 31.3403 23.3633 31.5361C23.0857 31.6592 22.7002 31.7991 22.5373 31.8554L22.1618 31.985L22.4535 32.2547C22.7838 32.5594 23.0314 32.8761 23.1744 33.0777C22.8351 33.227 22.3689 33.3888 22.3632 33.3904L21.9877 33.52L22.2794 33.7897C22.5516 34.0407 22.7665 34.2979 22.9202 34.5035C22.8337 34.575 22.6883 34.6853 22.4453 34.8509C22.2465 34.9863 22.0797 35.0919 22.0782 35.093L21.7423 35.3058L22.0888 35.5007C22.4847 35.7232 22.801 35.9772 22.9869 36.1416L22.9777 36.1615C22.9088 36.3107 22.4956 36.7888 22.2244 37.0815L21.9535 37.373L22.338 37.4736C22.6581 37.558 22.9401 37.6683 23.1563 37.7654C22.913 37.9823 22.6506 38.1928 22.6473 38.1962L22.3371 38.4451L22.7031 38.6004C23.0904 38.7651 23.4095 38.9615 23.622 39.1066C23.4893 39.3289 23.2188 39.6996 23.0256 39.9482L22.7815 40.2623L23.1738 40.3293C23.5105 40.3864 23.81 40.4756 24.0357 40.555C23.9953 40.761 23.789 41.2925 23.6428 41.6319L23.4857 41.997L23.8817 41.9626C24.2363 41.9324 24.5605 41.9446 24.8047 41.9659C24.6847 42.1953 24.4374 42.5798 24.2594 42.8375L24.0336 43.1652L24.4288 43.2097C24.7969 43.2511 25.1226 43.3304 25.3688 43.4049C25.3044 43.6557 25.1523 44.0866 25.0388 44.3788L24.8947 44.7497L25.2893 44.7015C25.7406 44.6464 26.1457 44.6638 26.3924 44.6855L26.397 44.7074C26.4307 44.8686 26.381 45.4981 26.3349 45.8944L26.2891 46.2894L26.6589 46.1432C26.9667 46.021 27.2602 45.9428 27.4908 45.8925C27.4236 46.2111 27.337 46.5361 27.3367 46.5408L27.2348 46.9251L27.6213 46.8335C28.0318 46.7369 28.4062 46.7058 28.6615 46.6967C28.6857 46.9542 28.6885 47.4138 28.6796 47.7279L28.6692 48.1249L29.0242 47.9467C29.409 47.754 29.7742 47.6359 30.0229 47.5688C30.1131 47.7847 30.2503 48.2949 30.3293 48.6344L30.4194 49.022L30.718 48.7595C30.9533 48.5526 31.2273 48.3557 31.507 48.189L31.5147 48.1952C31.6408 48.3003 31.9952 48.8239 32.207 49.1616L32.4175 49.499L32.6155 49.1538C32.773 48.8794 32.9448 48.6442 33.0863 48.4683L33.0918 48.4713C33.239 48.5439 33.7042 48.9715 33.9884 49.2519L34.2708 49.5313L34.3837 49.1498C34.4422 48.9519 34.5163 48.7503 34.6034 48.5511C34.8105 48.6215 35.3012 48.8829 35.6149 49.0648L35.9593 49.2633L35.9718 48.866C35.9748 48.7537 35.983 48.639 35.9944 48.5221C36.2373 48.6283 36.6027 48.8193 36.855 48.9612L37.2014 49.156L37.2092 48.7586C37.2155 48.4508 37.2515 48.1682 37.2912 47.9445C37.4767 47.9898 38.014 48.2513 38.3525 48.4311L38.7032 48.6173L38.7021 48.2202C38.7014 47.882 38.7369 47.5736 38.7749 47.3408C39.0668 47.4773 39.3555 47.6307 39.3592 47.6328L39.7105 47.8198L39.7094 47.4227C39.7083 47.0005 39.7619 46.6287 39.8128 46.3746C40.1144 46.4136 40.5811 46.5163 40.7707 46.561L41.157 46.6525L41.0555 46.2682C40.9615 45.9116 40.9183 45.5795 40.899 45.3358C41.2027 45.3562 41.6113 45.4121 41.781 45.4375L42.174 45.4971L42.0415 45.1225C41.9919 44.9812 41.9467 44.8347 41.9084 44.6834L42.0017 44.7085L41.9127 44.3225C41.9099 44.3118 41.9077 44.3019 41.9058 44.2908C42.268 44.3168 42.7195 44.3822 42.7247 44.3832L43.1182 44.4402L42.9829 44.0663C42.85 43.6976 42.7759 43.3536 42.7364 43.1021C42.8635 43.0984 42.949 43.0971 42.9503 43.0973L43.3474 43.0928L43.3405 43.0793C43.5012 43.1017 43.6173 43.1204 43.6186 43.1206L44.0117 43.1836L43.8821 42.8082C43.7249 42.3537 43.6579 41.9367 43.6296 41.6866C43.8009 41.6176 44.4006 41.5251 44.7843 41.4809L45.1791 41.4347L44.9523 41.1084C44.6583 40.6869 44.4731 40.2731 44.3856 40.053C44.6584 39.9195 45.1062 39.7475 45.2929 39.6794L45.6662 39.5433L45.3697 39.2781C45.072 39.0114 44.8392 38.7346 44.6908 38.5402L44.6923 38.5391C44.7911 38.4071 45.2975 38.0291 45.6246 37.8018L45.9515 37.5757L45.5979 37.3937C45.3692 37.2766 45.1417 37.1361 44.9209 36.9773L44.8616 36.9302C44.8169 36.8947 44.7731 36.8586 44.7289 36.8205C44.9913 36.6668 45.4712 36.4501 45.6539 36.3712L46.0192 36.2133L45.7077 35.9662C45.3657 35.6945 45.1028 35.4086 44.9414 35.2151C45.2153 34.9796 45.5642 34.7192 45.5688 34.716L45.8878 34.4783L45.5283 34.3094C45.3241 34.2132 45.121 34.1003 44.9222 33.972C45.0602 33.7507 45.3297 33.3921 45.522 33.152L45.7708 32.8415L45.3803 32.7688C45.0628 32.71 44.7785 32.6229 44.5598 32.5456C44.7981 32.2946 45.0816 32.0299 45.0857 32.026L45.3759 31.7544L44.9999 31.6263C44.6017 31.4906 44.2685 31.3186 44.0463 31.1892C44.1618 30.9582 44.4049 30.5675 44.5789 30.3058L44.7992 29.975L44.4041 29.9372C44.0853 29.9065 43.797 29.8471 43.5658 29.7864C43.7137 29.5879 44.0509 29.2252 44.2857 28.9891L44.5664 28.707L44.1856 28.5935C43.7875 28.4748 43.4503 28.3168 43.2285 28.1997C43.3103 27.9677 43.5299 27.5192 43.6869 27.2224L43.8732 26.8716L43.4753 26.8733C43.1579 26.8746 42.8676 26.8439 42.6429 26.8094C42.657 26.6065 42.8054 26.045 42.9139 25.687L43.0286 25.3064L42.6386 25.3846C42.3083 25.4504 42.0018 25.4761 41.7565 25.483L41.8185 25.2771L41.8094 25.2787C41.9134 25.0476 42.0557 24.7642 42.1667 24.5568L42.3542 24.2062L42.3491 24.212Z" fill="#CBCBCB"/>
<path d="M32.3704 13.2886C32.3704 13.2886 31.9023 13.7745 32.0262 14.6939C32.15 15.6133 32.6534 16.888 32.5853 17.7709C32.5173 18.6539 31.7038 20.8256 31.7038 20.8256L32.7156 22.311L34.0902 21.2451C34.0902 21.2451 34.9531 18.4452 34.8435 17.3297C34.7339 16.2142 34.6403 13.5453 34.6403 13.5453L32.3704 13.2886Z" fill="#433709"/>
<path d="M33.2641 13.3933C33.2845 13.9273 33.5385 16.1323 33.6344 17.1059C33.7441 18.2214 32.8811 21.0213 32.8811 21.0213L31.9727 21.5435L32.4799 22.2881L33.8545 21.2221C33.8545 21.2221 34.7175 18.4222 34.6079 17.3068C34.4982 16.1913 34.4046 13.5223 34.4046 13.5223L33.2654 13.3935L33.2641 13.3933Z" fill="#261C02"/>
<path d="M34.6458 13.6011C34.6177 13.8919 34.0732 14.0787 33.4305 14.0163C32.787 13.9544 32.2891 13.6673 32.3166 13.3757C32.3447 13.0849 32.8893 12.8981 33.532 12.9605C34.1755 13.0223 34.6734 13.3095 34.6458 13.6011Z" fill="#FCD3B3"/>
<path d="M31.9275 19.6714C31.9275 19.6714 27.4836 19.6975 24.1079 25.6322C20.733 31.5664 21.2807 36.5473 23.5871 40.8327C25.8927 45.1186 28.5357 47.2047 32.6211 47.5069C36.7058 47.8095 43.3278 41.4823 43.3209 37.105C43.3121 31.475 41.7861 26.3728 40.1981 23.9965C38.6102 21.6203 36.3974 20.5029 35.2555 20.053C34.1149 19.6034 32.891 19.5289 32.891 19.5289L31.9283 19.6709L31.9275 19.6714Z" fill="#4B5B19"/>
<path d="M29.5723 19.1211C29.5723 19.1211 30.3072 19.8379 30.5635 19.9623L30.8191 20.0871L30.3184 21.0659C30.3184 21.0659 29.6269 20.4446 29.6382 20.4244C29.6494 20.4042 29.5715 19.1216 29.5715 19.1216L29.5723 19.1211Z" fill="#6B7B3E"/>
<path d="M29.5713 19.1211C29.3442 19.909 28.9754 20.4774 28.9754 20.4774L30.318 21.0667L29.5719 19.1219L29.5713 19.1211Z" fill="#4B5B19"/>
<path d="M27.9945 19.6679C27.9945 19.6679 28.8766 20.1935 29.155 20.2551L29.4334 20.3167L29.1746 21.3853C29.1746 21.3853 28.3574 20.9416 28.3637 20.9191C28.37 20.8966 27.9953 19.6673 27.9953 19.6673L27.9945 19.6679Z" fill="#6B7B3E"/>
<path d="M27.9947 19.6679C27.957 20.487 27.7317 21.1258 27.7317 21.1258L29.1748 21.3853L27.9947 19.6679Z" fill="#4B5B19"/>
<path d="M26.775 20.5139C26.775 20.5139 27.7291 20.895 28.0126 20.9122L28.2973 20.9297L28.2092 22.0253C28.2092 22.0253 27.3329 21.715 27.3353 21.6918C27.3377 21.6686 26.7758 20.5133 26.7758 20.5133L26.775 20.5139Z" fill="#6B7B3E"/>
<path d="M26.7757 20.5139C26.8672 21.3291 26.7436 21.9954 26.7436 21.9954L28.2091 22.0258L26.7749 20.5145L26.7757 20.5139Z" fill="#4B5B19"/>
<path d="M23.3887 24.4053C23.3887 24.4053 24.415 24.4484 24.6886 24.3712L24.963 24.2934L25.2436 25.3561C25.2436 25.3561 24.3136 25.3542 24.3084 25.3316C24.3032 25.3089 23.39 24.4055 23.39 24.4055L23.3887 24.4053Z" fill="#6B7B3E"/>
<path d="M23.3889 24.4053C23.7452 25.1436 23.8501 25.8133 23.8501 25.8133L25.2433 25.3554L23.3897 24.4048L23.3889 24.4053Z" fill="#4B5B19"/>
<path d="M24.2695 23.0107C24.2695 23.0107 25.2958 23.0539 25.5695 22.9767L25.8439 22.8989L26.1244 23.9616C26.1244 23.9616 25.1944 23.9597 25.1892 23.937C25.1841 23.9144 24.2708 23.011 24.2708 23.011L24.2695 23.0107Z" fill="#6B7B3E"/>
<path d="M24.2698 23.0108C24.6261 23.7491 24.731 24.4188 24.731 24.4188L26.1241 23.9608L24.2706 23.0102L24.2698 23.0108Z" fill="#4B5B19"/>
<path d="M25.4238 21.6687C25.4238 21.6687 26.4304 21.8731 26.7133 21.8395L26.9962 21.806L27.1059 22.8998C27.1059 22.8998 26.1874 22.7513 26.1864 22.7282C26.1854 22.705 25.4251 21.6689 25.4251 21.6689L25.4238 21.6687Z" fill="#6B7B3E"/>
<path d="M25.4241 21.6687C25.66 22.4539 25.6571 23.1322 25.6571 23.1322L27.1049 22.8996L25.4241 21.6687Z" fill="#4B5B19"/>
<path d="M31.0235 18.6514C31.0235 18.6514 31.69 19.433 31.9333 19.5799L32.1771 19.7276L31.5886 20.6559C31.5886 20.6559 30.9574 19.973 30.9705 19.9538C30.9836 19.9346 31.0237 18.6501 31.0237 18.6501L31.0235 18.6514Z" fill="#6B7B3E"/>
<path d="M31.0235 18.6515C30.7252 19.4151 30.3052 19.9467 30.3052 19.9467L31.5878 20.6564L31.0229 18.6507L31.0235 18.6515Z" fill="#4B5B19"/>
<path d="M20.9785 30.8367C20.9785 30.8367 21.9489 30.5007 22.175 30.3286L22.4018 30.1559L23.0519 31.0419C23.0519 31.0419 22.1857 31.3807 22.173 31.3621C22.1603 31.3434 20.9785 30.8367 20.9785 30.8367Z" fill="#6B7B3E"/>
<path d="M20.9785 30.8367C21.5803 31.393 21.923 31.978 21.923 31.978L23.0519 31.0419L20.9785 30.8367Z" fill="#4B5B19"/>
<path d="M21.2715 29.3829C21.2715 29.3829 22.2419 29.047 22.4679 28.8749L22.6947 28.7022L23.3449 29.5882C23.3449 29.5882 22.4787 29.9269 22.466 29.9083C22.4533 29.8897 21.2715 29.3829 21.2715 29.3829Z" fill="#6B7B3E"/>
<path d="M21.2715 29.3829C21.8732 29.9393 22.216 30.5242 22.216 30.5242L23.3449 29.5882L21.2715 29.3829Z" fill="#4B5B19"/>
<path d="M21.7508 27.6691C21.7508 27.6691 22.7604 27.4793 23.009 27.3418L23.2583 27.2038L23.7717 28.1761C23.7717 28.1761 22.8654 28.3843 22.855 28.364C22.8454 28.3433 21.75 27.6697 21.75 27.6697L21.7508 27.6691Z" fill="#6B7B3E"/>
<path d="M21.7508 27.6692C22.2653 28.3077 22.5186 28.9365 22.5186 28.9365L23.7717 28.1762L21.7508 27.6692Z" fill="#4B5B19"/>
<path d="M22.5117 26.0437C22.5117 26.0437 23.5346 25.9483 23.7948 25.8347L24.0558 25.7206L24.4771 26.7362C24.4771 26.7362 23.5551 26.8596 23.5471 26.8378C23.5391 26.816 22.5117 26.0437 22.5117 26.0437Z" fill="#6B7B3E"/>
<path d="M22.5126 26.0438C22.965 26.7279 23.1591 27.3767 23.1591 27.3767L24.4775 26.7355L22.5126 26.0438Z" fill="#4B5B19"/>
<path d="M20.7988 32.4165C20.7988 32.4165 21.7693 32.0806 21.9953 31.9084L22.2221 31.7357L22.8722 32.6217C22.8722 32.6217 22.006 32.9605 21.9934 32.9419C21.9807 32.9233 20.7988 32.4165 20.7988 32.4165Z" fill="#6B7B3E"/>
<path d="M20.7988 32.4165C21.4006 32.9728 21.7433 33.5578 21.7433 33.5578L22.8722 32.6217L20.7988 32.4165Z" fill="#4B5B19"/>
<path d="M20.5568 34.1442C20.5568 34.1442 21.4232 33.5938 21.6037 33.3731L21.7842 33.1525L22.6215 33.8643C22.6215 33.8643 21.857 34.3942 21.8397 34.3787C21.8223 34.3632 20.5563 34.1434 20.5563 34.1434L20.5568 34.1442Z" fill="#6B7B3E"/>
<path d="M20.5566 34.1442C21.2707 34.5467 21.7397 35.0366 21.7397 35.0366L22.6218 33.8651L20.5574 34.1436L20.5566 34.1442Z" fill="#4B5B19"/>
<path d="M20.7545 36.15C20.7545 36.15 21.4542 35.3983 21.5722 35.1394L21.6916 34.8808L22.6816 35.3579C22.6816 35.3579 22.0758 36.0639 22.0556 36.0526C22.0347 36.0419 20.7545 36.15 20.7545 36.15Z" fill="#6B7B3E"/>
<path d="M20.7539 36.15C21.5466 36.3592 22.1237 36.7141 22.1237 36.7141L22.6811 35.3579L20.7539 36.15Z" fill="#4B5B19"/>
<path d="M21.1642 37.3212C21.1642 37.3212 21.965 36.6779 22.1198 36.4395L22.2745 36.2011L23.1849 36.8166C23.1849 36.8166 22.4835 37.4274 22.4651 37.4137C22.4467 37.4001 21.1634 37.3217 21.1634 37.3217L21.1642 37.3212Z" fill="#6B7B3E"/>
<path d="M21.1648 37.3211C21.9193 37.6427 22.4385 38.0779 22.4385 38.0779L23.1855 36.8166L21.1641 37.3217L21.1648 37.3211Z" fill="#4B5B19"/>
<path d="M21.5931 39.0834C21.5931 39.0834 22.2234 38.2732 22.319 38.0046L22.4145 37.7361L23.443 38.1245C23.443 38.1245 22.902 38.8806 22.8801 38.8717C22.8589 38.8623 21.5926 39.0826 21.5926 39.0826L21.5931 39.0834Z" fill="#6B7B3E"/>
<path d="M21.5945 39.0833C22.4027 39.2217 23.0084 39.5252 23.0084 39.5252L23.4442 38.1257L21.5938 39.0839L21.5945 39.0833Z" fill="#4B5B19"/>
<path d="M22.2602 40.7615C22.2602 40.7615 22.6656 39.8181 22.6904 39.5341L22.7152 39.25L23.8082 39.366C23.8082 39.366 23.4758 40.2347 23.4528 40.2311C23.4298 40.2274 22.2605 40.7602 22.2605 40.7602L22.2602 40.7615Z" fill="#6B7B3E"/>
<path d="M22.2602 40.7615C23.0775 40.6913 23.74 40.8312 23.74 40.8312L23.8074 39.3666L22.2597 40.7607L22.2602 40.7615Z" fill="#4B5B19"/>
<path d="M22.8718 42.045C22.8718 42.045 23.4541 41.1994 23.5342 40.9265L23.6144 40.6537L24.6636 40.9825C24.6636 40.9825 24.167 41.7686 24.1447 41.761C24.1225 41.7534 22.8715 42.0463 22.8715 42.0463L22.8718 42.045Z" fill="#6B7B3E"/>
<path d="M22.8711 42.045C23.6861 42.1367 24.3081 42.4041 24.3081 42.4041L24.6624 40.9817L22.8711 42.045Z" fill="#4B5B19"/>
<path d="M23.6995 43.5802C23.6995 43.5802 24.0717 42.6231 24.0863 42.3391L24.1009 42.0552L25.1972 42.1326C25.1972 42.1326 24.8951 43.0125 24.8727 43.0096C24.8494 43.0072 23.6995 43.5802 23.6995 43.5802Z" fill="#6B7B3E"/>
<path d="M23.6989 43.5803C24.5127 43.4817 25.1802 43.5989 25.1802 43.5989L25.1965 42.1327L23.6989 43.5803Z" fill="#4B5B19"/>
<path d="M25.048 45.078C25.048 45.078 25.1658 44.0577 25.1078 43.779L25.0498 43.5002L26.1307 43.2982C26.1307 43.2982 26.061 44.2255 26.0381 44.2286C26.0152 44.2317 25.0475 45.0773 25.0475 45.0773L25.048 45.078Z" fill="#6B7B3E"/>
<path d="M25.0475 45.0781C25.8106 44.7766 26.4852 44.7206 26.4852 44.7206L26.1302 43.2982L25.0475 45.0781Z" fill="#4B5B19"/>
<path d="M26.0731 45.7788C26.0731 45.7788 26.3371 44.7862 26.3199 44.5023L26.3035 44.2179L27.4025 44.1741C27.4025 44.1741 27.1999 45.0817 27.1762 45.0819C27.1533 45.0816 26.0731 45.7788 26.0731 45.7788Z" fill="#6B7B3E"/>
<path d="M26.0739 45.7787C26.8722 45.5907 27.5478 45.6329 27.5478 45.6329L27.4019 44.1739L26.0733 45.7779L26.0739 45.7787Z" fill="#4B5B19"/>
<path d="M27.4618 46.9442C27.4618 46.9442 27.4901 45.9178 27.4079 45.6453L27.3257 45.3727L28.3846 45.0766C28.3846 45.0766 28.3963 46.0065 28.3742 46.0124C28.3516 46.0176 27.4623 46.945 27.4623 46.945L27.4618 46.9442Z" fill="#6B7B3E"/>
<path d="M27.4618 46.9443C28.1948 46.5769 28.8623 46.4621 28.8623 46.4621L28.3841 45.0759L27.4618 46.9443Z" fill="#4B5B19"/>
<path d="M43.0953 27.4927C43.0953 27.4927 42.3717 28.221 42.2442 28.4761L42.1175 28.7306L41.1439 28.2207C41.1439 28.2207 41.7728 27.5354 41.7922 27.5472C41.8124 27.5584 43.0953 27.4927 43.0953 27.4927Z" fill="#6B7B3E"/>
<path d="M43.096 27.4928C42.3101 27.2585 41.7456 26.8837 41.7456 26.8837L41.1445 28.2207L43.0967 27.4922L43.096 27.4928Z" fill="#4B5B19"/>
<path d="M42.4366 25.7326C42.4366 25.7326 41.9555 26.6401 41.9082 26.9212L41.8605 27.2015L40.7809 26.9968C40.7809 26.9968 41.1827 26.1582 41.2054 26.1632C41.2282 26.1681 42.4366 25.7326 42.4366 25.7326Z" fill="#6B7B3E"/>
<path d="M42.4363 25.7326C41.616 25.7367 40.9665 25.5425 40.9665 25.5425L40.7793 26.9966L42.4349 25.7324L42.4363 25.7326Z" fill="#4B5B19"/>
<path d="M41.6252 24.1957C41.6252 24.1957 41.3286 25.1787 41.3356 25.4627L41.3431 25.7474L40.2438 25.754C40.2438 25.754 40.4774 24.8537 40.4996 24.8545C40.5225 24.8548 41.6247 24.195 41.6247 24.195L41.6252 24.1957Z" fill="#6B7B3E"/>
<path d="M41.6243 24.1957C40.8202 24.357 40.1462 24.292 40.1462 24.292L40.2426 25.7553L41.6243 24.1957Z" fill="#4B5B19"/>
<path d="M40.9678 25.5603C40.9678 25.5603 40.6712 26.5433 40.6774 26.8278L40.6849 27.1125L39.5856 27.1191C39.5856 27.1191 39.8192 26.2188 39.8414 26.2196C39.8643 26.2199 40.9665 25.5601 40.9665 25.5601L40.9678 25.5603Z" fill="#6B7B3E"/>
<path d="M40.968 25.5604C40.1639 25.7216 39.49 25.6567 39.49 25.6567L39.5864 27.1199L40.968 25.5604Z" fill="#4B5B19"/>
<path d="M41.1045 26.9162C41.1045 26.9162 40.8079 27.8991 40.8141 28.1836L40.8216 28.4684L39.7223 28.4749C39.7223 28.4749 39.9559 27.5746 39.9781 27.5755C40.001 27.5758 41.1032 26.9159 41.1032 26.9159L41.1045 26.9162Z" fill="#6B7B3E"/>
<path d="M41.1047 26.9162C40.3006 27.0774 39.6267 27.0125 39.6267 27.0125L39.7231 28.4757L41.1047 26.9162Z" fill="#4B5B19"/>
<path d="M41.3506 28.1024C41.3506 28.1024 41.054 29.0854 41.0602 29.3699L41.0677 29.6547L39.9684 29.6612C39.9684 29.6612 40.202 28.7609 40.225 28.7612C40.2479 28.7615 41.3501 28.1017 41.3501 28.1017L41.3506 28.1024Z" fill="#6B7B3E"/>
<path d="M41.3508 28.1025C40.5467 28.2637 39.8728 28.1988 39.8728 28.1988L39.9692 29.662L41.3508 28.1025Z" fill="#4B5B19"/>
<path d="M40.3799 24.1634C40.3799 24.1634 40.0833 25.1463 40.0895 25.4308L40.097 25.7156L38.9977 25.7221C38.9977 25.7221 39.2313 24.8218 39.2543 24.8221C39.2772 24.8224 40.3794 24.1626 40.3794 24.1626L40.3799 24.1634Z" fill="#6B7B3E"/>
<path d="M40.3801 24.1634C39.576 24.3246 38.9021 24.2597 38.9021 24.2597L38.9985 25.7229L40.3801 24.1634Z" fill="#4B5B19"/>
<path d="M39.5108 22.9871C39.5108 22.9871 39.2141 23.9701 39.2203 24.2546L39.2279 24.5393L38.1286 24.5458C38.1286 24.5458 38.3622 23.6456 38.3851 23.6459C38.408 23.6462 39.5102 22.9863 39.5102 22.9863L39.5108 22.9871Z" fill="#6B7B3E"/>
<path d="M39.511 22.9871C38.7069 23.1484 38.0329 23.0834 38.0329 23.0834L38.1293 24.5467L39.511 22.9871Z" fill="#4B5B19"/>
<path d="M40.8721 22.9884C40.8721 22.9884 40.3874 23.8938 40.3388 24.1746L40.2898 24.4547L39.2105 24.2453C39.2105 24.2453 39.6159 23.4087 39.6386 23.4137C39.6614 23.4187 40.8721 22.9884 40.8721 22.9884Z" fill="#6B7B3E"/>
<path d="M40.8725 22.9884C40.0522 22.989 39.404 22.7917 39.404 22.7917L39.2108 24.2453L40.8725 22.9884Z" fill="#4B5B19"/>
<path d="M39.8756 21.5569C39.8756 21.5569 39.6129 22.5497 39.6301 22.8336L39.6472 23.1174L38.5486 23.1633C38.5486 23.1633 38.7498 22.2555 38.7735 22.2553C38.7964 22.2556 39.8756 21.5569 39.8756 21.5569Z" fill="#6B7B3E"/>
<path d="M39.8756 21.5569C39.0783 21.7465 38.4019 21.7048 38.4019 21.7048L38.5499 23.1636L39.8756 21.5569Z" fill="#4B5B19"/>
<path d="M38.369 20.2187C38.369 20.2187 38.3662 21.2459 38.4549 21.5163L38.5436 21.7867L37.492 22.1085C37.492 22.1085 37.4572 21.1797 37.48 21.1732C37.5021 21.1672 38.369 20.2187 38.369 20.2187Z" fill="#6B7B3E"/>
<path d="M38.3697 20.2187C37.6455 20.604 36.981 20.735 36.981 20.735L37.4927 22.1086L38.3697 20.2187Z" fill="#4B5B19"/>
<path d="M37.2718 19.6371C37.2718 19.6371 37.1204 20.6531 37.1693 20.9335L37.2182 21.2139L36.1312 21.3803C36.1312 21.3803 36.2314 20.4561 36.2543 20.453C36.2772 20.4499 37.2718 19.6371 37.2718 19.6371Z" fill="#6B7B3E"/>
<path d="M37.2726 19.6371C36.5007 19.914 35.8238 19.9466 35.8238 19.9466L36.132 21.3803L37.2726 19.6371Z" fill="#4B5B19"/>
<path d="M35.6863 18.8253C35.6863 18.8253 35.7736 19.848 35.8854 20.1106L35.9975 20.3719L34.9786 20.7851C34.9786 20.7851 34.8628 19.8626 34.8846 19.8545C34.9064 19.8465 35.6863 18.8253 35.6863 18.8253Z" fill="#6B7B3E"/>
<path d="M35.6846 18.8254C34.9972 19.2732 34.3469 19.4615 34.3469 19.4615L34.9777 20.7847L35.6854 18.8249L35.6846 18.8254Z" fill="#4B5B19"/>
<path d="M43.7563 40.2708C43.7563 40.2708 42.7362 40.3904 42.4782 40.5105L42.2201 40.6306L41.7752 39.6253C41.7752 39.6253 42.6938 39.4804 42.7026 39.5017C42.7114 39.523 43.7563 40.2708 43.7563 40.2708Z" fill="#6B7B3E"/>
<path d="M43.7565 40.2708C43.2878 39.5978 43.0786 38.9536 43.0786 38.9536L41.7754 39.6254L43.7565 40.2708Z" fill="#4B5B19"/>
<path d="M44.2249 38.4304C44.2249 38.4304 43.2596 38.7821 43.0367 38.9589L42.8133 39.135L42.1484 38.259C42.1484 38.259 43.0085 37.9062 43.0219 37.9243C43.0352 37.9438 44.2251 38.4291 44.2251 38.4291L44.2249 38.4304Z" fill="#6B7B3E"/>
<path d="M44.224 38.4304C43.613 37.8838 43.2609 37.3052 43.2609 37.3052L42.1481 38.2598L44.224 38.4304Z" fill="#4B5B19"/>
<path d="M44.5112 36.5279C44.5112 36.5279 43.6668 37.1122 43.4953 37.3393L43.3237 37.5664L42.4591 36.8879C42.4591 36.8879 43.2022 36.3283 43.2196 36.3438C43.2377 36.3587 44.5112 36.5279 44.5112 36.5279Z" fill="#6B7B3E"/>
<path d="M44.5104 36.5279C43.7807 36.1542 43.2934 35.6825 43.2934 35.6825L42.4583 36.8879L44.5104 36.5279Z" fill="#4B5B19"/>
<path d="M44.5833 35.0341C44.5833 35.0341 43.6407 35.4408 43.4276 35.6303L43.2145 35.8198L42.5 34.9845C42.5 34.9845 43.3384 34.5816 43.3524 34.6005C43.3667 34.6181 44.5823 35.0359 44.5823 35.0359L44.5833 35.0341Z" fill="#6B7B3E"/>
<path d="M44.5829 35.0341C43.9413 34.5243 43.5555 33.9663 43.5555 33.9663L42.4999 34.9832L44.5824 35.0333L44.5829 35.0341Z" fill="#4B5B19"/>
<path d="M43.3716 34.6851C43.3716 34.6851 42.429 35.0919 42.2159 35.2814L42.0036 35.4703L41.2891 34.635C41.2891 34.635 42.1275 34.2321 42.1415 34.251C42.1557 34.2686 43.3713 34.6864 43.3713 34.6864L43.3716 34.6851Z" fill="#6B7B3E"/>
<path d="M43.372 34.6851C42.7298 34.1745 42.3446 33.6173 42.3446 33.6173L41.289 34.6342L43.372 34.6851Z" fill="#4B5B19"/>
<path d="M42.3704 33.615C42.3704 33.615 41.4278 34.0218 41.2147 34.2113L41.0016 34.4007L40.2871 33.5654C40.2871 33.5654 41.1255 33.1625 41.1395 33.1814C41.1538 33.199 42.3694 33.6168 42.3694 33.6168L42.3704 33.615Z" fill="#6B7B3E"/>
<path d="M42.37 33.615C41.7284 33.1052 41.3426 32.5473 41.3426 32.5473L40.287 33.5641L42.3695 33.6142L42.37 33.615Z" fill="#4B5B19"/>
<path d="M43.7122 36.0252C43.7122 36.0252 42.7696 36.4319 42.5565 36.6214L42.3434 36.8109L41.6289 35.9756C41.6289 35.9756 42.4673 35.5727 42.4813 35.5916C42.4953 35.6105 43.7112 36.027 43.7112 36.027L43.7122 36.0252Z" fill="#6B7B3E"/>
<path d="M43.713 36.0251C43.0713 35.5153 42.6864 34.9568 42.6864 34.9568L41.6308 35.9737L43.7132 36.0238L43.713 36.0251Z" fill="#4B5B19"/>
<path d="M43.3052 37.6558C43.3052 37.6558 42.3626 38.0626 42.1495 38.2521L41.9372 38.441L41.2227 37.6057C41.2227 37.6057 42.0611 37.2028 42.0751 37.2217C42.0893 37.2393 43.3049 37.6571 43.3049 37.6571L43.3052 37.6558Z" fill="#6B7B3E"/>
<path d="M43.3048 37.6558C42.6626 37.1453 42.2782 36.5876 42.2782 36.5876L41.2226 37.6044L43.3056 37.6553L43.3048 37.6558Z" fill="#4B5B19"/>
<path d="M43.0755 39.1668C43.0755 39.1668 42.1329 39.5735 41.9198 39.763L41.7067 39.9525L40.9922 39.1172C40.9922 39.1172 41.8306 38.7143 41.8446 38.7332C41.8589 38.7508 43.0745 39.1686 43.0745 39.1686L43.0755 39.1668Z" fill="#6B7B3E"/>
<path d="M43.0763 39.1667C42.4346 38.6569 42.0497 38.0984 42.0497 38.0984L40.994 39.1153L43.0766 39.1654L43.0763 39.1667Z" fill="#4B5B19"/>
<path d="M44.4458 33.3602C44.4458 33.3602 43.6223 33.9735 43.4591 34.2063L43.296 34.439L42.408 33.7912C42.408 33.7912 43.131 33.2056 43.1491 33.2205C43.1667 33.2346 44.4466 33.3597 44.4466 33.3597L44.4458 33.3602Z" fill="#6B7B3E"/>
<path d="M44.4464 33.3603C43.7045 33.012 43.2009 32.5581 43.2009 32.5581L42.4086 33.7913L44.4472 33.3597L44.4464 33.3603Z" fill="#4B5B19"/>
<path d="M44.3542 31.7948C44.3542 31.7948 43.7126 32.5968 43.6134 32.8633L43.5141 33.1298L42.491 32.7275C42.491 32.7275 43.0428 31.9788 43.064 31.9883C43.0852 31.9977 44.3542 31.7948 44.3542 31.7948Z" fill="#6B7B3E"/>
<path d="M44.3528 31.7948C43.5467 31.646 42.9453 31.3339 42.9453 31.3339L42.4909 32.7278L44.3541 31.7951L44.3528 31.7948Z" fill="#4B5B19"/>
<path d="M43.9268 30.6098C43.9268 30.6098 43.1765 31.3106 43.0393 31.5598L42.9027 31.8098L41.9487 31.2637C41.9487 31.2637 42.6022 30.6026 42.6221 30.6152C42.6415 30.627 43.9268 30.6098 43.9268 30.6098Z" fill="#6B7B3E"/>
<path d="M43.9276 30.6098C43.1508 30.3455 42.6009 29.9505 42.6009 29.9505L41.9495 31.2638L43.9276 30.6098Z" fill="#4B5B19"/>
<path d="M43.3685 28.8845C43.3685 28.8845 42.7994 29.7394 42.725 30.014L42.6493 30.2884L41.5953 29.9776C41.5953 29.9776 42.0785 29.1835 42.1002 29.1903C42.1225 29.1979 43.3685 28.8845 43.3685 28.8845Z" fill="#6B7B3E"/>
<path d="M43.3685 28.8846C42.5524 28.8062 41.9257 28.5487 41.9257 28.5487L41.5953 29.9777L43.3685 28.8846Z" fill="#4B5B19"/>
<path d="M42.6251 41.9597C42.6251 41.9597 41.6114 41.7966 41.3305 41.8413L41.0495 41.8861L40.8956 40.7974C40.8956 40.7974 41.8191 40.9083 41.8209 40.9309C41.8232 40.9543 42.6254 41.9584 42.6254 41.9584L42.6251 41.9597Z" fill="#6B7B3E"/>
<path d="M42.6244 41.9598C42.3568 41.1849 42.3318 40.5074 42.3318 40.5074L40.8945 40.7987L42.6244 41.9598Z" fill="#4B5B19"/>
<path d="M42.5924 29.1559C42.5924 29.1559 41.796 29.8041 41.6423 30.0441L41.4886 30.284L40.5739 29.6737C40.5739 29.6737 41.2714 29.0589 41.2905 29.072C41.3097 29.0851 42.5924 29.1559 42.5924 29.1559Z" fill="#6B7B3E"/>
<path d="M42.5913 29.1559C41.8346 28.8393 41.3128 28.407 41.3128 28.407L40.5736 29.6732L42.5913 29.1559Z" fill="#4B5B19"/>
<path d="M42.1523 27.3963C42.1523 27.3963 41.5267 28.2101 41.4329 28.4797L41.3387 28.7485L40.3077 28.3664C40.3077 28.3664 40.8439 27.6067 40.8659 27.6156C40.8873 27.6237 42.1515 27.3969 42.1515 27.3969L42.1523 27.3963Z" fill="#6B7B3E"/>
<path d="M42.1521 27.3964C41.343 27.2633 40.7352 26.9634 40.7352 26.9634L40.3083 28.3659L42.1521 27.3964Z" fill="#4B5B19"/>
<path d="M41.8949 41.9322C41.8949 41.9322 40.8678 41.943 40.5988 42.0353L40.3298 42.1276L39.9941 41.0809C39.9941 41.0809 40.9226 41.0338 40.9293 41.0554C40.9353 41.0775 41.8957 41.9317 41.8957 41.9317L41.8949 41.9322Z" fill="#6B7B3E"/>
<path d="M41.8955 41.9323C41.5003 41.2137 41.3611 40.5503 41.3611 40.5503L39.9941 41.0802L41.8957 41.931L41.8955 41.9323Z" fill="#4B5B19"/>
<path d="M42.5552 40.152C42.5552 40.152 41.5589 40.3999 41.3178 40.5516L41.0767 40.7033L40.5087 39.7625C40.5087 39.7625 41.4012 39.5024 41.4123 39.5221C41.4234 39.5418 42.5552 40.152 42.5552 40.152Z" fill="#6B7B3E"/>
<path d="M42.5547 40.152C42.004 39.5439 41.7159 38.9307 41.7159 38.9307L40.5081 39.7626L42.5547 40.152Z" fill="#4B5B19"/>
<path d="M43.0422 38.2908C43.0422 38.2908 42.1403 38.7824 41.9462 38.9897L41.7512 39.1975L40.9629 38.4307C40.9629 38.4307 41.7607 37.9531 41.7765 37.9697C41.7923 37.9862 43.0417 38.2901 43.0417 38.2901L43.0422 38.2908Z" fill="#6B7B3E"/>
<path d="M43.0414 38.2908C42.3558 37.8416 41.9209 37.3217 41.9209 37.3217L40.9626 38.4314L43.0414 38.2908Z" fill="#4B5B19"/>
<path d="M43.3001 36.9793C43.3001 36.9793 42.32 37.2843 42.0879 37.4493L41.8563 37.6149L41.2344 36.7086C41.2344 36.7086 42.1102 36.3973 42.1234 36.4168C42.1366 36.4362 43.3001 36.9793 43.3001 36.9793Z" fill="#6B7B3E"/>
<path d="M43.2992 36.9794C42.7152 36.4041 42.3914 35.8085 42.3914 35.8085L41.2335 36.7087L43.2992 36.9794Z" fill="#4B5B19"/>
<path d="M43.3399 35.3C43.3399 35.3 42.4563 35.8235 42.269 36.0375L42.0822 36.2522L41.2676 35.5135C41.2676 35.5135 42.0484 35.0078 42.065 35.0238C42.0816 35.0398 43.3407 35.2995 43.3407 35.2995L43.3399 35.3Z" fill="#6B7B3E"/>
<path d="M43.3403 35.3001C42.6393 34.875 42.1866 34.3706 42.1866 34.3706L41.268 35.5136L43.3403 35.3001Z" fill="#4B5B19"/>
<path d="M43.3866 33.567C43.3866 33.567 42.6635 34.296 42.5373 34.5513L42.4106 34.8059L41.4359 34.2978C41.4359 34.2978 42.0631 33.6115 42.0832 33.6227C42.1034 33.634 43.3866 33.567 43.3866 33.567Z" fill="#6B7B3E"/>
<path d="M43.3872 33.567C42.6013 33.3328 42.0358 32.9598 42.0358 32.9598L41.436 34.2971L43.3872 33.567Z" fill="#4B5B19"/>
<path d="M43.0874 32.3439C43.0874 32.3439 42.2665 32.9611 42.1045 33.1954L41.9419 33.4289L41.051 32.7854C41.051 32.7854 41.7711 32.1971 41.7895 32.2107C41.8079 32.2243 43.0874 32.3439 43.0874 32.3439Z" fill="#6B7B3E"/>
<path d="M43.0874 32.3439C42.3434 31.9993 41.8381 31.5478 41.8381 31.5478L41.0509 32.7853L43.0866 32.3445L43.0874 32.3439Z" fill="#4B5B19"/>
<path d="M42.7147 30.5688C42.7147 30.5688 42.0592 31.3586 41.9547 31.6241L41.8511 31.8891L40.8356 31.468C40.8356 31.468 41.4009 30.7294 41.4214 30.7393C41.4426 30.7488 42.7153 30.5696 42.7153 30.5696L42.7147 30.5688Z" fill="#6B7B3E"/>
<path d="M42.7153 30.5687C41.9114 30.4048 41.3159 30.0829 41.3159 30.0829L40.8362 31.468L42.7153 30.5687Z" fill="#4B5B19"/>
<path d="M40.5919 43.4918C40.5919 43.4918 39.6011 43.2221 39.317 43.2372L39.0328 43.2523L38.995 42.1538C38.995 42.1538 39.9016 42.3616 39.9013 42.3845C39.901 42.4074 40.5914 43.4911 40.5914 43.4911L40.5919 43.4918Z" fill="#6B7B3E"/>
<path d="M40.591 43.4918C40.4072 42.6929 40.4536 42.0168 40.4536 42.0168L38.9941 42.1538L40.591 43.4918Z" fill="#4B5B19"/>
<path d="M40.6218 26.8449C40.6218 26.8449 39.9044 27.579 39.7788 27.8351L39.6539 28.0907L38.6759 27.5895C38.6759 27.5895 39.2986 26.8982 39.3188 26.9095C39.3389 26.9207 40.6212 26.8441 40.6212 26.8441L40.6218 26.8449Z" fill="#6B7B3E"/>
<path d="M40.6215 26.8449C39.8339 26.6164 39.2655 26.2477 39.2655 26.2477L38.6757 27.5895L40.6215 26.8449Z" fill="#4B5B19"/>
<path d="M39.9838 25.1471C39.9838 25.1471 39.4558 26.0274 39.3929 26.3055L39.3307 26.5831L38.2634 26.3212C38.2634 26.3212 38.7102 25.5053 38.7319 25.5121C38.7544 25.5184 39.9843 25.1478 39.9843 25.1478L39.9838 25.1471Z" fill="#6B7B3E"/>
<path d="M39.9845 25.1471C39.1659 25.1068 38.5275 24.8789 38.5275 24.8789L38.2629 26.321L39.985 25.1479L39.9845 25.1471Z" fill="#4B5B19"/>
<path d="M41.3905 39.6178C41.3905 39.6178 40.3716 39.7457 40.1144 39.8687L39.8579 39.9911L39.4041 38.9895C39.4041 38.9895 40.3216 38.8363 40.3304 38.8575C40.3393 38.8788 41.3905 39.6178 41.3905 39.6178Z" fill="#6B7B3E"/>
<path d="M41.3912 39.6178C40.9163 38.9489 40.7022 38.3059 40.7022 38.3059L39.4043 38.9888L41.3907 39.617L41.3912 39.6178Z" fill="#4B5B19"/>
<path d="M41.8415 37.7743C41.8415 37.7743 40.8794 38.1341 40.6576 38.3125L40.4358 38.4909L39.7637 37.621C39.7637 37.621 40.6205 37.2601 40.6345 37.279C40.6477 37.2984 41.8415 37.7743 41.8415 37.7743Z" fill="#6B7B3E"/>
<path d="M41.8422 37.7743C41.226 37.2335 40.8687 36.6573 40.8687 36.6573L39.7644 37.621L41.8422 37.7743Z" fill="#4B5B19"/>
<path d="M42.1128 35.8689C42.1128 35.8689 41.2732 36.4602 41.104 36.6891L40.9348 36.918L40.0648 36.2466C40.0648 36.2466 40.8029 35.6814 40.8205 35.6955C40.8386 35.7105 42.1134 35.8697 42.1134 35.8697L42.1128 35.8689Z" fill="#6B7B3E"/>
<path d="M42.1128 35.869C41.38 35.5008 40.8891 35.0338 40.8891 35.0338L40.0642 36.2459L42.1128 35.869Z" fill="#4B5B19"/>
<path d="M42.2184 34.5374C42.2184 34.5374 41.279 34.9523 41.0677 35.1428L40.8565 35.3333L40.1348 34.504C40.1348 34.504 40.9697 34.0944 40.9845 34.1128C40.9988 34.1303 42.2184 34.5374 42.2184 34.5374Z" fill="#6B7B3E"/>
<path d="M42.2188 34.5374C41.5727 34.0329 41.1829 33.4789 41.1829 33.4789L40.1357 34.5048L42.2188 34.5374Z" fill="#4B5B19"/>
<path d="M42.0681 32.8642C42.0681 32.8642 41.2498 33.4852 41.0885 33.719L40.9269 33.9541L40.0335 33.3134C40.0335 33.3134 40.7515 32.722 40.7691 32.7361C40.7867 32.7503 42.0673 32.8647 42.0673 32.8647L42.0681 32.8642Z" fill="#6B7B3E"/>
<path d="M42.0672 32.8641C41.3219 32.5226 40.8142 32.0727 40.8142 32.0727L40.0326 33.3133L42.0672 32.8641Z" fill="#4B5B19"/>
<path d="M41.9152 31.1363C41.9152 31.1363 41.2806 31.9436 41.1832 32.2111L41.0858 32.4787L40.0597 32.0853C40.0597 32.0853 40.6048 31.332 40.626 31.3414C40.6472 31.3508 41.9144 31.1368 41.9144 31.1368L41.9152 31.1363Z" fill="#6B7B3E"/>
<path d="M41.9153 31.1363C41.108 30.994 40.5035 30.6873 40.5035 30.6873L40.0606 32.0848L41.9153 31.1363Z" fill="#4B5B19"/>
<path d="M41.4793 29.9555C41.4793 29.9555 40.7346 30.6628 40.5997 30.9138L40.4649 31.1648L39.5061 30.6266C39.5061 30.6266 40.1545 29.9599 40.1739 29.9716C40.1933 29.9834 41.4785 29.956 41.4785 29.956L41.4793 29.9555Z" fill="#6B7B3E"/>
<path d="M41.4791 29.9555C40.701 29.6978 40.147 29.3067 40.147 29.3067L39.5067 30.6261L41.4791 29.9555Z" fill="#4B5B19"/>
<path d="M40.9065 28.2349C40.9065 28.2349 40.3452 29.0947 40.2721 29.3695L40.199 29.6444L39.142 29.3425C39.142 29.3425 39.6187 28.5437 39.6409 28.5513C39.6626 28.5582 40.9065 28.2349 40.9065 28.2349Z" fill="#6B7B3E"/>
<path d="M40.9056 28.2348C40.0887 28.1638 39.4598 27.9113 39.4598 27.9113L39.141 29.3424L40.9056 28.2348Z" fill="#4B5B19"/>
<path d="M40.2744 41.3162C40.2744 41.3162 39.2597 41.1616 38.9783 41.209L38.6981 41.2566L38.5351 40.1695C38.5351 40.1695 39.4593 40.2732 39.4619 40.2953C39.465 40.3182 40.2744 41.3162 40.2744 41.3162Z" fill="#6B7B3E"/>
<path d="M40.2753 41.3162C40.0012 40.5434 39.97 39.8668 39.97 39.8668L38.5352 40.17L40.2745 41.3167L40.2753 41.3162Z" fill="#4B5B19"/>
<path d="M39.7487 26.2891C39.7487 26.2891 39.0314 27.0233 38.9057 27.2794L38.7809 27.5349L37.8029 27.0337C37.8029 27.0337 38.4255 26.3424 38.4457 26.3537C38.4659 26.365 39.7482 26.2883 39.7482 26.2883L39.7487 26.2891Z" fill="#6B7B3E"/>
<path d="M39.7485 26.2891C38.9608 26.0606 38.3925 25.6919 38.3925 25.6919L37.8026 27.0337L39.7485 26.2891Z" fill="#4B5B19"/>
<path d="M39.1107 24.5921C39.1107 24.5921 38.5827 25.4724 38.5198 25.7506L38.4577 26.0282L37.3904 25.7663C37.3904 25.7663 37.8372 24.9504 37.8589 24.9572C37.8814 24.9635 39.1112 24.5929 39.1112 24.5929L39.1107 24.5921Z" fill="#6B7B3E"/>
<path d="M39.1115 24.5922C38.2928 24.5519 37.6545 24.324 37.6545 24.324L37.3898 25.766L39.112 24.5929L39.1115 24.5922Z" fill="#4B5B19"/>
<path d="M40.5175 39.0615C40.5175 39.0615 39.4986 39.1894 39.2413 39.3124L38.9848 39.4348L38.5311 38.4332C38.5311 38.4332 39.4486 38.28 39.4574 38.3013C39.4662 38.3225 40.5175 39.0615 40.5175 39.0615Z" fill="#6B7B3E"/>
<path d="M40.5182 39.0615C40.0432 38.3927 39.8291 37.7496 39.8291 37.7496L38.5312 38.4325L40.5176 39.0607L40.5182 39.0615Z" fill="#4B5B19"/>
<path d="M40.9684 37.2181C40.9684 37.2181 40.0063 37.578 39.7845 37.7563L39.5627 37.9347L38.8906 37.0648C38.8906 37.0648 39.7475 36.704 39.7614 36.7229C39.7747 36.7423 40.9684 37.2181 40.9684 37.2181Z" fill="#6B7B3E"/>
<path d="M40.9692 37.2182C40.353 36.6774 39.9957 36.1011 39.9957 36.1011L38.8913 37.0648L40.9692 37.2182Z" fill="#4B5B19"/>
<path d="M41.2398 35.3132C41.2398 35.3132 40.4001 35.9044 40.2309 36.1334L40.0618 36.3623L39.1918 35.6908C39.1918 35.6908 39.9298 35.1256 39.9474 35.1397C39.9655 35.1547 41.2403 35.3139 41.2403 35.3139L41.2398 35.3132Z" fill="#6B7B3E"/>
<path d="M41.2397 35.3132C40.507 34.945 40.0161 34.478 40.0161 34.478L39.1912 35.6901L41.2397 35.3132Z" fill="#4B5B19"/>
<path d="M41.3454 33.9816C41.3454 33.9816 40.406 34.3965 40.1947 34.587L39.9835 34.7775L39.2617 33.9482C39.2617 33.9482 40.0967 33.5386 40.1115 33.557C40.1257 33.5746 41.3454 33.9816 41.3454 33.9816Z" fill="#6B7B3E"/>
<path d="M41.3458 33.9816C40.6997 33.4771 40.3098 32.9231 40.3098 32.9231L39.2626 33.949L41.3458 33.9816Z" fill="#4B5B19"/>
<path d="M41.195 32.3087C41.195 32.3087 40.3767 32.9298 40.2154 33.1636L40.0539 33.3987L39.1605 32.7579C39.1605 32.7579 39.8785 32.1666 39.8961 32.1807C39.9144 32.1943 41.1942 32.3093 41.1942 32.3093L41.195 32.3087Z" fill="#6B7B3E"/>
<path d="M41.1941 32.3087C40.4489 31.9672 39.9412 31.5173 39.9412 31.5173L39.1596 32.7579L41.1941 32.3087Z" fill="#4B5B19"/>
<path d="M40.3863 36.3007C40.3863 36.3007 39.5466 36.892 39.3774 37.1209L39.2083 37.3498L38.3383 36.6784C38.3383 36.6784 39.0763 36.1131 39.0939 36.1273C39.112 36.1422 40.3868 36.3015 40.3868 36.3015L40.3863 36.3007Z" fill="#6B7B3E"/>
<path d="M40.3862 36.3007C39.6535 35.9326 39.1626 35.4656 39.1626 35.4656L38.3377 36.6776L40.3862 36.3007Z" fill="#4B5B19"/>
<path d="M39.2593 37.4921C39.2593 37.4921 38.4196 38.0834 38.2505 38.3123L38.0813 38.5412L37.2113 37.8698C37.2113 37.8698 37.9493 37.3045 37.9669 37.3187C37.9851 37.3336 39.2598 37.4929 39.2598 37.4929L39.2593 37.4921Z" fill="#6B7B3E"/>
<path d="M39.2593 37.4922C38.5265 37.124 38.0356 36.657 38.0356 36.657L37.2107 37.8691L39.2593 37.4922Z" fill="#4B5B19"/>
<path d="M40.4899 34.9692C40.4899 34.9692 39.5505 35.384 39.3392 35.5745L39.128 35.765L38.4062 34.9358C38.4062 34.9358 39.2412 34.5262 39.256 34.5445C39.2702 34.5621 40.4899 34.9692 40.4899 34.9692Z" fill="#6B7B3E"/>
<path d="M40.4903 34.9692C39.8442 34.4646 39.4544 33.9106 39.4544 33.9106L38.4072 34.9365L40.4903 34.9692Z" fill="#4B5B19"/>
<path d="M40.3415 33.2968C40.3415 33.2968 39.5232 33.9178 39.3619 34.1516L39.2004 34.3867L38.307 33.746C38.307 33.746 39.0249 33.1546 39.0425 33.1688C39.0601 33.1829 40.3407 33.2973 40.3407 33.2973L40.3415 33.2968Z" fill="#6B7B3E"/>
<path d="M40.3406 33.2967C39.5953 32.9552 39.0877 32.5053 39.0877 32.5053L38.3055 33.7452L40.3401 33.2959L40.3406 33.2967Z" fill="#4B5B19"/>
<path d="M41.0407 30.5814C41.0407 30.5814 40.4062 31.3887 40.3088 31.6562L40.2114 31.9238L39.1847 31.5296C39.1847 31.5296 39.7298 30.7763 39.751 30.7858C39.7722 30.7952 41.0394 30.5811 41.0394 30.5811L41.0407 30.5814Z" fill="#6B7B3E"/>
<path d="M41.0403 30.5814C40.233 30.4391 39.6285 30.1324 39.6285 30.1324L39.1856 31.5299L41.0403 30.5814Z" fill="#4B5B19"/>
<path d="M40.6054 29.4005C40.6054 29.4005 39.8607 30.1078 39.7267 30.3583L39.5919 30.6093L38.6331 30.0711C38.6331 30.0711 39.2815 29.4043 39.3009 29.4161C39.3203 29.4279 40.6054 29.4005 40.6054 29.4005Z" fill="#6B7B3E"/>
<path d="M40.606 29.4005C39.8279 29.1427 39.274 28.7517 39.274 28.7517L38.6336 30.0711L40.606 29.4005Z" fill="#4B5B19"/>
<path d="M40.0335 27.68C40.0335 27.68 39.4721 28.5397 39.3991 28.8146L39.326 29.0894L38.2689 28.7876C38.2689 28.7876 38.7456 27.9888 38.7679 27.9964C38.7896 28.0032 40.0335 27.68 40.0335 27.68Z" fill="#6B7B3E"/>
<path d="M40.0325 27.6799C39.2157 27.6088 38.5867 27.3564 38.5867 27.3564L38.268 28.7875L40.0325 27.6799Z" fill="#4B5B19"/>
<path d="M39.4013 40.7611C39.4013 40.7611 38.3867 40.6066 38.1052 40.6539L37.825 40.7016L37.662 39.6145C37.662 39.6145 38.5863 39.7181 38.5888 39.7402C38.5919 39.7631 39.4013 40.7611 39.4013 40.7611Z" fill="#6B7B3E"/>
<path d="M39.4014 40.7611C39.1274 39.9884 39.097 39.3112 39.097 39.3112L37.6621 39.6145L39.4014 40.7611Z" fill="#4B5B19"/>
<path d="M31.053 48.284C31.053 48.284 30.5088 47.4133 30.2904 47.2313L30.0713 47.0498L30.7903 46.2178C30.7903 46.2178 31.3139 46.9866 31.2987 47.0026C31.2827 47.0192 31.0543 48.2842 31.0543 48.2842L31.053 48.284Z" fill="#6B7B3E"/>
<path d="M31.0532 48.2839C31.4612 47.5729 31.9542 47.1086 31.9542 47.1086L30.7897 46.2184L31.0529 48.2852L31.0532 48.2839Z" fill="#4B5B19"/>
<path d="M32.8506 48.3333C32.8506 48.3333 32.1201 47.6112 31.8647 47.485L31.6094 47.3589L32.1169 46.3834C32.1169 46.3834 32.8041 47.01 32.7928 47.0302C32.7816 47.0504 32.8506 48.3333 32.8506 48.3333Z" fill="#6B7B3E"/>
<path d="M32.8507 48.3333C33.0837 47.5472 33.4561 46.9809 33.4561 46.9809L32.1178 46.3829L32.8515 48.3328L32.8507 48.3333Z" fill="#4B5B19"/>
<path d="M34.4735 48.1023C34.4735 48.1023 33.5845 47.5882 33.3053 47.5306L33.027 47.4723L33.2709 46.4002C33.2709 46.4002 34.0942 46.8329 34.0879 46.8554C34.0816 46.8779 34.473 48.1015 34.473 48.1015L34.4735 48.1023Z" fill="#6B7B3E"/>
<path d="M34.4743 48.1023C34.5006 47.283 34.7182 46.6414 34.7182 46.6414L33.2715 46.4015L34.4736 48.1028L34.4743 48.1023Z" fill="#4B5B19"/>
<path d="M35.7484 47.9951C35.7484 47.9951 34.8533 47.492 34.5736 47.4369L34.294 47.3819L34.5256 46.3067C34.5256 46.3067 35.3535 46.7295 35.3485 46.7522C35.343 46.7741 35.7479 47.9943 35.7479 47.9943L35.7484 47.9951Z" fill="#6B7B3E"/>
<path d="M35.7477 47.995C35.7645 47.1754 35.9746 46.5309 35.9746 46.5309L34.5254 46.3075L35.7477 47.995Z" fill="#4B5B19"/>
<path d="M38.3207 46.6255C38.3207 46.6255 37.4141 46.1439 37.1332 46.0954L36.8529 46.0476L37.0589 44.9683C37.0589 44.9683 37.8965 45.3719 37.8915 45.3947C37.8866 45.4174 38.3205 46.6268 38.3205 46.6268L38.3207 46.6255Z" fill="#6B7B3E"/>
<path d="M38.3221 46.6255C38.3194 45.8055 38.5149 45.1563 38.5149 45.1563L37.0605 44.967L38.3221 46.6255Z" fill="#4B5B19"/>
<path d="M37.2836 47.4473C37.2836 47.4473 36.377 46.9657 36.0961 46.9171L35.8158 46.8694L36.0226 45.7896C36.0226 45.7896 36.8602 46.1932 36.8552 46.2159C36.8502 46.2386 37.2842 47.4481 37.2842 47.4481L37.2836 47.4473Z" fill="#6B7B3E"/>
<path d="M37.285 47.4473C37.2823 46.6273 37.4778 45.9781 37.4778 45.9781L36.0234 45.7888L37.285 47.4473Z" fill="#4B5B19"/>
<path d="M39.715 45.5011C39.715 45.5011 38.7159 45.2643 38.4322 45.2883L38.1489 45.313L38.0757 44.2159C38.0757 44.2159 38.9884 44.3944 38.9894 44.4176C38.9905 44.4408 39.7155 45.5019 39.7155 45.5019L39.715 45.5011Z" fill="#6B7B3E"/>
<path d="M39.7155 45.5012C39.5062 44.7082 39.5304 44.0313 39.5304 44.0313L38.0762 44.2159L39.7155 45.5012Z" fill="#4B5B19"/>
<path d="M40.7353 44.3415C40.7353 44.3415 39.7207 44.1869 39.4392 44.2343L39.159 44.2819L38.996 43.1948C38.996 43.1948 39.9203 43.2984 39.9228 43.3206C39.9259 43.3435 40.7353 44.3415 40.7353 44.3415Z" fill="#6B7B3E"/>
<path d="M40.7354 44.3415C40.4614 43.5687 40.4309 42.8915 40.4309 42.8915L38.9961 43.1948L40.7354 44.3415Z" fill="#4B5B19"/>
<path d="M41.7041 43.2575C41.7041 43.2575 40.6877 43.1087 40.4078 43.1584L40.1274 43.2073L39.9581 42.1211C39.9581 42.1211 40.8829 42.2187 40.886 42.2416C40.889 42.2645 41.7049 43.257 41.7049 43.257L41.7041 43.2575Z" fill="#6B7B3E"/>
<path d="M41.705 43.2575C41.4266 42.4866 41.3914 41.8092 41.3914 41.8092L39.959 42.1211L41.705 43.2575Z" fill="#4B5B19"/>
<path d="M29.1532 47.8159C29.1532 47.8159 28.9209 46.8158 28.7723 46.5726L28.6237 46.3294L29.5727 45.775C29.5727 45.775 29.8198 46.6718 29.7988 46.6827C29.7786 46.6931 29.1519 47.8156 29.1519 47.8156L29.1532 47.8159Z" fill="#6B7B3E"/>
<path d="M29.1526 47.8159C29.7689 47.2756 30.386 46.995 30.386 46.995L29.5728 45.7745L29.1528 47.8146L29.1526 47.8159Z" fill="#4B5B19"/>
<path d="M32.8574 17.2004L33.8809 17.4331L33.8929 16.96L32.8574 17.2004Z" fill="#261C02"/>
<path d="M32.4673 14.9373C32.4673 14.9373 32.9442 15.1718 33.429 15.1609C33.9143 15.1509 33.8738 14.9545 33.8738 14.9545L33.8135 14.6239C33.8135 14.6239 33.6104 14.8282 33.3088 14.8893C33.0063 14.9509 32.4668 14.9365 32.4668 14.9365L32.4673 14.9373Z" fill="#261C02"/>
<path d="M32.8384 16.6264C32.8384 16.6264 33.3153 16.8608 33.8001 16.85C34.2855 16.8399 34.2449 16.6436 34.2449 16.6436L34.1846 16.313C34.1846 16.313 33.9815 16.5173 33.6799 16.5784C33.3774 16.64 32.8379 16.6256 32.8379 16.6256L32.8384 16.6264Z" fill="#261C02"/>
<path d="M37.0747 46.331C37.0747 46.331 36.168 45.8493 35.8871 45.8008L35.6068 45.753L35.8128 44.6738C35.8128 44.6738 36.6504 45.0774 36.6455 45.1001C36.6405 45.1228 37.0744 46.3323 37.0744 46.3323L37.0747 46.331Z" fill="#6B7B3E"/>
<path d="M37.076 46.331C37.0733 45.511 37.2688 44.8618 37.2688 44.8618L35.8145 44.6725L37.076 46.331Z" fill="#4B5B19"/>
<path d="M35.938 46.8551C35.938 46.8551 35.0313 46.3735 34.7504 46.325L34.4701 46.2772L34.6761 45.1979C34.6761 45.1979 35.5137 45.6015 35.5087 45.6243C35.5038 45.647 35.9377 46.8564 35.9377 46.8564L35.938 46.8551Z" fill="#6B7B3E"/>
<path d="M35.9393 46.8551C35.9366 46.0351 36.1321 45.3859 36.1321 45.3859L34.6777 45.1967L35.9388 46.8544L35.9393 46.8551Z" fill="#4B5B19"/>
<path d="M34.6196 47.1129C34.6196 47.1129 33.7129 46.6313 33.432 46.5828L33.1517 46.535L33.3577 45.4557C33.3577 45.4557 34.1954 45.8594 34.1904 45.8821C34.1854 45.9048 34.6193 47.1142 34.6193 47.1142L34.6196 47.1129Z" fill="#6B7B3E"/>
<path d="M34.621 47.113C34.6182 46.293 34.8137 45.6437 34.8137 45.6437L33.3594 45.4545L34.621 47.113Z" fill="#4B5B19"/>
<path d="M33.3325 47.2706C33.3325 47.2706 32.4258 46.789 32.1449 46.7405L31.8646 46.6927L32.0706 45.6135C32.0706 45.6135 32.9083 46.0171 32.9033 46.0398C32.8983 46.0625 33.3322 47.2719 33.3322 47.2719L33.3325 47.2706Z" fill="#6B7B3E"/>
<path d="M33.3338 47.2707C33.3311 46.4507 33.5266 45.8014 33.5266 45.8014L32.0723 45.6122L33.3338 47.2707Z" fill="#4B5B19"/>
<path d="M31.7075 47.2734C31.7075 47.2734 31.1802 46.3925 30.9647 46.2062L30.7491 46.02L31.4836 45.2025C31.4836 45.2025 31.9925 45.9812 31.9765 45.9978C31.9605 46.0144 31.7068 47.2739 31.7068 47.2739L31.7075 47.2734Z" fill="#6B7B3E"/>
<path d="M31.7084 47.2734C32.1297 46.5703 32.6325 46.1153 32.6325 46.1153L31.4852 45.2019L31.7084 47.2734Z" fill="#4B5B19"/>
<path d="M39.2459 39.2767C39.2459 39.2767 38.2356 39.459 37.9853 39.5954L37.7357 39.7313L37.229 38.7556C37.229 38.7556 38.1367 38.5545 38.147 38.5747C38.1566 38.5955 39.2464 39.2775 39.2464 39.2775L39.2459 39.2767Z" fill="#6B7B3E"/>
<path d="M39.2454 39.2767C38.7358 38.6337 38.4874 38.0038 38.4874 38.0038L37.2285 38.7556L39.2454 39.2767Z" fill="#4B5B19"/>
<path d="M39.0928 35.9103C39.0928 35.9103 38.18 36.3809 37.9811 36.5845L37.7817 36.7874L37.0117 36.0024C37.0117 36.0024 37.8209 35.5433 37.8359 35.5604C37.8517 35.5769 39.0923 35.9095 39.0923 35.9095L39.0928 35.9103Z" fill="#6B7B3E"/>
<path d="M39.0924 35.9103C38.4165 35.4454 37.9943 34.9157 37.9943 34.9157L37.0105 36.003L39.0924 35.9103Z" fill="#4B5B19"/>
<path d="M39.1475 32.9338C39.1475 32.9338 38.2347 33.4044 38.0358 33.6081L37.8364 33.811L37.0664 33.026C37.0664 33.026 37.8756 32.5669 37.8906 32.5839C37.9064 32.6004 39.1477 32.9325 39.1477 32.9325L39.1475 32.9338Z" fill="#6B7B3E"/>
<path d="M39.1471 32.9339C38.4712 32.469 38.049 31.9392 38.049 31.9392L37.0652 33.0265L39.1471 32.9339Z" fill="#4B5B19"/>
<path d="M39.1436 30.9941C39.1436 30.9941 38.2308 31.4647 38.0319 31.6684L37.8325 31.8713L37.0625 31.0863C37.0625 31.0863 37.8717 30.6272 37.8867 30.6442C37.9025 30.6607 39.1431 30.9934 39.1431 30.9934L39.1436 30.9941Z" fill="#6B7B3E"/>
<path d="M39.1432 30.9941C38.4673 30.5292 38.0451 29.9995 38.0451 29.9995L37.0613 31.0868L39.1432 30.9941Z" fill="#4B5B19"/>
<path d="M39.5225 32.1565C39.5225 32.1565 38.6097 32.6271 38.4108 32.8307L38.2114 33.0337L37.4414 32.2487C37.4414 32.2487 38.2506 31.7895 38.2656 31.8066C38.2806 31.8236 39.522 32.1557 39.522 32.1557L39.5225 32.1565Z" fill="#6B7B3E"/>
<path d="M39.5221 32.1565C38.8462 31.6916 38.424 31.1619 38.424 31.1619L37.4402 32.2492L39.5221 32.1565Z" fill="#4B5B19"/>
<path d="M39.1846 29.4999C39.1846 29.4999 38.2718 29.9705 38.0729 30.1741L37.8735 30.377L37.1035 29.592C37.1035 29.592 37.9127 29.1329 37.9277 29.15C37.9435 29.1665 39.1841 29.4991 39.1841 29.4991L39.1846 29.4999Z" fill="#6B7B3E"/>
<path d="M39.1842 29.4999C38.5083 29.035 38.0861 28.5053 38.0861 28.5053L37.1023 29.5926L39.1842 29.4999Z" fill="#4B5B19"/>
<path d="M39.0909 27.9994C39.0909 27.9994 38.1781 28.47 37.9792 28.6737L37.7798 28.8765L37.0098 28.0916C37.0098 28.0916 37.819 27.6324 37.834 27.6495C37.849 27.6665 39.0903 27.9986 39.0903 27.9986L39.0909 27.9994Z" fill="#6B7B3E"/>
<path d="M39.0904 27.9994C38.4146 27.5345 37.9923 27.0048 37.9923 27.0048L37.0086 28.0921L39.0904 27.9994Z" fill="#4B5B19"/>
<path d="M37.9217 40.5651C37.9217 40.5651 36.9114 40.7474 36.661 40.8839L36.4115 41.0198L35.9048 40.044C35.9048 40.044 36.8125 39.8429 36.8228 39.8632C36.8324 39.8839 37.9222 40.5659 37.9222 40.5659L37.9217 40.5651Z" fill="#6B7B3E"/>
<path d="M37.9211 40.5652C37.4121 39.923 37.1632 39.2923 37.1632 39.2923L35.9043 40.0441L37.9211 40.5652Z" fill="#4B5B19"/>
<path d="M35.6446 44.0381C35.6446 44.0381 34.6849 43.6722 34.4007 43.6589L34.1166 43.6456L34.1879 42.5489C34.1879 42.5489 35.0696 42.8452 35.0672 42.8684C35.0648 42.8916 35.6453 44.0376 35.6453 44.0376L35.6446 44.0381Z" fill="#6B7B3E"/>
<path d="M35.6441 44.0381C35.5401 43.2246 35.6533 42.5563 35.6533 42.5563L34.1875 42.5488L35.6449 44.0376L35.6441 44.0381Z" fill="#4B5B19"/>
<path d="M33.6055 46.0133C33.6055 46.0133 32.6458 45.6474 32.3616 45.6341L32.0775 45.6208L32.1489 44.5241C32.1489 44.5241 33.0305 44.8204 33.0281 44.8436C33.0258 44.8669 33.6063 46.0128 33.6063 46.0128L33.6055 46.0133Z" fill="#6B7B3E"/>
<path d="M33.6051 46.0133C33.5011 45.1998 33.6143 44.5316 33.6143 44.5316L32.1484 44.524L33.6051 46.0133Z" fill="#4B5B19"/>
<path d="M37.2244 41.9261C37.2244 41.9261 36.2141 42.1084 35.9638 42.2449L35.7142 42.3808L35.2075 41.405C35.2075 41.405 36.1152 41.2039 36.1256 41.2241C36.1352 41.2449 37.2249 41.9269 37.2249 41.9269L37.2244 41.9261Z" fill="#6B7B3E"/>
<path d="M37.2239 41.9261C36.7148 41.2839 36.4659 40.6532 36.4659 40.6532L35.207 41.405L37.2239 41.9261Z" fill="#4B5B19"/>
<path d="M36.5799 42.9883C36.5799 42.9883 35.5696 43.1707 35.3192 43.3071L35.0697 43.443L34.563 42.4672C34.563 42.4672 35.4714 42.2656 35.481 42.2864C35.4906 42.3071 36.5804 42.9891 36.5804 42.9891L36.5799 42.9883Z" fill="#6B7B3E"/>
<path d="M36.5799 42.9884C36.0708 42.3462 35.8219 41.7155 35.8219 41.7155L34.5625 42.4666L36.5793 42.9876L36.5799 42.9884Z" fill="#4B5B19"/>
<path d="M38.1176 45.2704C38.1176 45.2704 37.211 44.7888 36.9301 44.7403L36.6498 44.6925L36.8566 43.6127C36.8566 43.6127 37.6942 44.0163 37.6892 44.039C37.6842 44.0617 38.1182 45.2712 38.1182 45.2712L38.1176 45.2704Z" fill="#6B7B3E"/>
<path d="M38.119 45.2704C38.1163 44.4504 38.3118 43.8012 38.3118 43.8012L36.8574 43.6119L38.119 45.2704Z" fill="#4B5B19"/>
<path d="M39.3243 44.337C39.3243 44.337 38.3207 44.1203 38.0378 44.1505L37.7549 44.1807L37.659 43.0854C37.659 43.0854 38.5752 43.2456 38.5762 43.2688C38.5772 43.292 39.3243 44.337 39.3243 44.337Z" fill="#6B7B3E"/>
<path d="M39.3235 44.3371C39.0978 43.5485 39.1085 42.8716 39.1085 42.8716L37.6582 43.0854L39.3235 44.3371Z" fill="#4B5B19"/>
<path d="M39.4591 43.1327C39.4591 43.1327 38.4555 42.916 38.1726 42.9462L37.8896 42.9763L37.7937 41.8811C37.7937 41.8811 38.71 42.0413 38.711 42.0645C38.712 42.0877 39.4583 43.1332 39.4583 43.1332L39.4591 43.1327Z" fill="#6B7B3E"/>
<path d="M39.4583 43.1327C39.2326 42.3441 39.2433 41.6673 39.2433 41.6673L37.793 41.8811L39.4583 43.1327Z" fill="#4B5B19"/>
<path d="M40.9727 40.7468C40.9727 40.7468 39.9692 40.5301 39.6862 40.5603L39.4033 40.5905L39.3074 39.4952C39.3074 39.4952 40.2236 39.6554 40.2246 39.6786C40.2257 39.7018 40.9727 40.7468 40.9727 40.7468Z" fill="#6B7B3E"/>
<path d="M40.972 40.7469C40.7463 39.9583 40.757 39.2814 40.757 39.2814L39.3066 39.4952L40.972 40.7469Z" fill="#4B5B19"/>
<path d="M40.1387 42.2347C40.1387 42.2347 39.1352 42.018 38.8522 42.0482L38.5693 42.0784L38.4734 40.9831C38.4734 40.9831 39.3896 41.1433 39.3907 41.1665C39.3917 41.1897 40.1387 42.2347 40.1387 42.2347Z" fill="#6B7B3E"/>
<path d="M40.138 42.2348C39.9123 41.4462 39.923 40.7693 39.923 40.7693L38.4727 40.9832L40.138 42.2348Z" fill="#4B5B19"/>
<path d="M38.6388 41.8948C38.6388 41.8948 37.6352 41.6781 37.3523 41.7082L37.0693 41.7384L36.9734 40.6431C36.9734 40.6431 37.8897 40.8034 37.8907 40.8266C37.8917 40.8498 38.6388 41.8948 38.6388 41.8948Z" fill="#6B7B3E"/>
<path d="M38.638 41.8948C38.4123 41.1062 38.423 40.4294 38.423 40.4294L36.9727 40.6432L38.638 41.8948Z" fill="#4B5B19"/>
<path d="M38.1036 43.2379C38.1036 43.2379 37.1 43.0212 36.8171 43.0514L36.5341 43.0816L36.4383 41.9863C36.4383 41.9863 37.3545 42.1465 37.3555 42.1697C37.3565 42.1929 38.1041 43.2387 38.1041 43.2387L38.1036 43.2379Z" fill="#6B7B3E"/>
<path d="M38.1028 43.2379C37.8771 42.4493 37.8878 41.7725 37.8878 41.7725L36.4375 41.9863L38.1028 43.2379Z" fill="#4B5B19"/>
<path d="M37.3985 44.3742C37.3985 44.3742 36.395 44.1576 36.112 44.1877L35.8291 44.2179L35.7332 43.1226C35.7332 43.1226 36.6494 43.2829 36.6504 43.306C36.6515 43.3292 37.3985 44.3742 37.3985 44.3742Z" fill="#6B7B3E"/>
<path d="M37.3978 44.3743C37.1721 43.5857 37.1828 42.9089 37.1828 42.9089L35.7324 43.1227L37.3978 44.3743Z" fill="#4B5B19"/>
<path d="M36.2201 45.6355C36.2201 45.6355 35.2894 45.2021 35.0063 45.1687L34.7233 45.1353L34.8724 44.0459C34.8724 44.0459 35.7307 44.4048 35.7265 44.4269C35.7228 44.4499 36.2196 45.6347 36.2196 45.6347L36.2201 45.6355Z" fill="#6B7B3E"/>
<path d="M36.2202 45.6355C36.1753 44.8169 36.3352 44.1589 36.3352 44.1589L34.873 44.0466L36.2194 45.636L36.2202 45.6355Z" fill="#4B5B19"/>
<path d="M35.2162 46.2117C35.2162 46.2117 34.2855 45.7783 34.0024 45.7449L33.7194 45.7115L33.8685 44.6221C33.8685 44.6221 34.7268 44.9809 34.7226 45.0031C34.7189 45.0261 35.2157 46.2109 35.2157 46.2109L35.2162 46.2117Z" fill="#6B7B3E"/>
<path d="M35.2163 46.2116C35.1709 45.3923 35.3313 44.7351 35.3313 44.7351L33.8691 44.6228L35.2155 46.2122L35.2163 46.2116Z" fill="#4B5B19"/>
<path d="M27.1364 21.7014C27.1364 21.7014 28.017 22.053 28.279 22.0689L28.5411 22.0848L28.4594 23.0964C28.4594 23.0964 27.6503 22.8097 27.6522 22.7891C27.6549 22.768 27.1356 21.7019 27.1356 21.7019L27.1364 21.7014Z" fill="#6B7B3E"/>
<path d="M27.1366 21.7014C27.2212 22.4531 27.1072 23.0684 27.1072 23.0684L28.4604 23.0958L27.1373 21.7009L27.1366 21.7014Z" fill="#4B5B19"/>
<path d="M24.0117 25.2933C24.0117 25.2933 24.9588 25.3337 25.2119 25.2613L25.4642 25.1895L25.7231 26.1703C25.7231 26.1703 24.8647 26.1684 24.8598 26.1479C24.8549 26.1274 24.0117 25.2933 24.0117 25.2933Z" fill="#6B7B3E"/>
<path d="M24.0117 25.2934C24.3409 25.9751 24.4367 26.593 24.4367 26.593L25.7223 26.1709L24.0117 25.2934Z" fill="#4B5B19"/>
<path d="M24.8223 24.0063C24.8223 24.0063 25.7693 24.0467 26.0224 23.9743L26.2747 23.9025L26.5336 24.8833C26.5336 24.8833 25.6753 24.8814 25.6704 24.8609C25.6655 24.8404 24.8223 24.0063 24.8223 24.0063Z" fill="#6B7B3E"/>
<path d="M24.8223 24.0064C25.1514 24.6881 25.2472 25.3061 25.2472 25.3061L26.5329 24.8839L24.8223 24.0064Z" fill="#4B5B19"/>
<path d="M25.8887 22.7664C25.8887 22.7664 26.8177 22.9554 27.0785 22.9244L27.3393 22.8934L27.4406 23.9031C27.4406 23.9031 26.5936 23.7662 26.5916 23.7448C26.5908 23.7237 25.8892 22.7671 25.8892 22.7671L25.8887 22.7664Z" fill="#6B7B3E"/>
<path d="M25.8896 22.7663C26.1071 23.4912 26.1048 24.1168 26.1048 24.1168L27.441 23.9023L25.8896 22.7663Z" fill="#4B5B19"/>
<path d="M21.7852 31.2291C21.7852 31.2291 22.6811 30.919 22.8898 30.7597L23.0984 30.6005L23.6986 31.4182C23.6986 31.4182 22.8989 31.7311 22.8873 31.714C22.8757 31.6969 21.7852 31.2291 21.7852 31.2291Z" fill="#6B7B3E"/>
<path d="M21.7852 31.2291C22.3409 31.7429 22.6571 32.2823 22.6571 32.2823L23.6986 31.4182L21.7852 31.2291Z" fill="#4B5B19"/>
<path d="M22.0547 29.8873C22.0547 29.8873 22.9506 29.5772 23.1593 29.4179L23.368 29.2587L23.9682 30.0764C23.9682 30.0764 23.1685 30.3893 23.1568 30.3722C23.1452 30.3551 22.0547 29.8873 22.0547 29.8873Z" fill="#6B7B3E"/>
<path d="M22.0547 29.8873C22.6104 30.4011 22.9267 30.9405 22.9267 30.9405L23.9682 30.0764L22.0547 29.8873Z" fill="#4B5B19"/>
<path d="M22.4988 28.3054C22.4988 28.3054 23.4307 28.1298 23.6603 28.003L23.8899 27.8761L24.3635 28.7733C24.3635 28.7733 23.5271 28.9656 23.5178 28.9469C23.5085 28.9283 22.498 28.3059 22.498 28.3059L22.4988 28.3054Z" fill="#6B7B3E"/>
<path d="M22.4981 28.3054C22.9725 28.8951 23.206 29.4749 23.206 29.4749L24.3635 28.7728L22.4981 28.3054Z" fill="#4B5B19"/>
<path d="M23.2012 26.8053C23.2012 26.8053 24.1449 26.7172 24.3859 26.6121L24.6269 26.507L25.0152 27.4441C25.0152 27.4441 24.164 27.5579 24.157 27.5376C24.1492 27.5179 23.2012 26.8053 23.2012 26.8053Z" fill="#6B7B3E"/>
<path d="M23.2017 26.8052C23.6195 27.4369 23.7987 28.0355 23.7987 28.0355L25.0157 27.4441L23.2017 26.8052Z" fill="#4B5B19"/>
<path d="M21.6191 32.6871C21.6191 32.6871 22.515 32.377 22.7237 32.2178L22.9324 32.0585L23.5326 32.8762C23.5326 32.8762 22.7329 33.1891 22.7213 33.172C22.7096 33.1549 21.6191 32.6871 21.6191 32.6871Z" fill="#6B7B3E"/>
<path d="M21.6191 32.6871C22.1749 33.2009 22.4911 33.7403 22.4911 33.7403L23.5326 32.8762L21.6191 32.6871Z" fill="#4B5B19"/>
<path d="M21.3967 34.2818C21.3967 34.2818 22.1963 33.7735 22.3634 33.5699L22.5297 33.3668L23.3024 34.0238C23.3024 34.0238 22.5964 34.5127 22.5809 34.4982C22.5653 34.4838 21.3962 34.281 21.3962 34.281L21.3967 34.2818Z" fill="#6B7B3E"/>
<path d="M21.3965 34.2817C22.0555 34.6535 22.4884 35.1055 22.4884 35.1055L23.3027 34.0245L21.397 34.2825L21.3965 34.2817Z" fill="#4B5B19"/>
<path d="M21.5794 36.134C21.5794 36.134 22.2249 35.4396 22.3344 35.2014L22.4445 34.9627L23.3584 35.403C23.3584 35.403 22.7994 36.0543 22.7803 36.0446C22.7612 36.0349 21.5794 36.134 21.5794 36.134Z" fill="#6B7B3E"/>
<path d="M21.5801 36.134C22.3116 36.3269 22.8444 36.6551 22.8444 36.6551L23.359 35.4031L21.5801 36.134Z" fill="#4B5B19"/>
<path d="M21.9573 37.2145C21.9573 37.2145 22.6967 36.621 22.8393 36.4L22.9825 36.1796L23.8234 36.7482C23.8234 36.7482 23.1762 37.3117 23.1589 37.2997C23.1416 37.2876 21.9573 37.2145 21.9573 37.2145Z" fill="#6B7B3E"/>
<path d="M21.957 37.2145C22.6534 37.5108 23.1329 37.9128 23.1329 37.9128L23.8231 36.7482L21.957 37.2145Z" fill="#4B5B19"/>
<path d="M22.3536 38.8415C22.3536 38.8415 22.9355 38.0938 23.0238 37.8462L23.112 37.5985L24.0609 37.957C24.0609 37.957 23.5613 38.6554 23.542 38.647C23.5226 38.6386 22.3536 38.8415 22.3536 38.8415Z" fill="#6B7B3E"/>
<path d="M22.3535 38.8416C23.0995 38.9688 23.6589 39.2494 23.6589 39.2494L24.0608 37.9571L22.3535 38.8416Z" fill="#4B5B19"/>
<path d="M22.9674 40.3908C22.9674 40.3908 23.3415 39.5198 23.3641 39.2577L23.3868 38.9956L24.3955 39.1031C24.3955 39.1031 24.0887 39.9043 24.0676 39.9016C24.0465 39.8989 22.9669 40.39 22.9669 40.39L22.9674 40.3908Z" fill="#6B7B3E"/>
<path d="M22.9668 40.3907C23.7208 40.3261 24.3326 40.455 24.3326 40.455L24.395 39.103L22.9663 40.39L22.9668 40.3907Z" fill="#4B5B19"/>
<path d="M23.5312 41.5754C23.5312 41.5754 24.0693 40.7951 24.1429 40.5426L24.2165 40.2902L25.1847 40.5935C25.1847 40.5935 24.7265 41.3193 24.7056 41.312C24.686 41.3049 23.5307 41.5746 23.5307 41.5746L23.5312 41.5754Z" fill="#6B7B3E"/>
<path d="M23.5312 41.5754C24.2833 41.6599 24.8578 41.9075 24.8578 41.9075L25.1852 40.5943L23.5312 41.5754Z" fill="#4B5B19"/>
<path d="M24.2977 42.9923C24.2977 42.9923 24.6404 42.1086 24.6549 41.8464L24.6682 41.5838L25.6802 41.6561C25.6802 41.6561 25.4012 42.4679 25.3806 42.4661C25.3594 42.4634 24.2982 42.9931 24.2982 42.9931L24.2977 42.9923Z" fill="#6B7B3E"/>
<path d="M24.2968 42.9923C25.0484 42.9009 25.6642 43.0089 25.6642 43.0089L25.6794 41.6561L24.2968 42.9923Z" fill="#4B5B19"/>
<path d="M25.5425 44.3745C25.5425 44.3745 25.6514 43.433 25.598 43.1761L25.5446 42.9192L26.5421 42.7331C26.5421 42.7331 26.4771 43.5889 26.4569 43.5925C26.436 43.5953 25.5422 44.3758 25.5422 44.3758L25.5425 44.3745Z" fill="#6B7B3E"/>
<path d="M25.5432 44.3745C26.2471 44.0962 26.8701 44.0447 26.8701 44.0447L26.543 42.7318L25.5432 44.3745Z" fill="#4B5B19"/>
<path d="M26.4877 45.021C26.4877 45.021 26.7311 44.105 26.716 43.8425L26.7008 43.58L27.7146 43.5396C27.7146 43.5396 27.5273 44.3777 27.5056 44.3777C27.484 44.3776 26.4877 45.021 26.4877 45.021Z" fill="#6B7B3E"/>
<path d="M26.4879 45.021C27.2241 44.8469 27.8489 44.8862 27.8489 44.8862L27.7148 43.5396L26.4879 45.021Z" fill="#4B5B19"/>
<path d="M27.7686 46.0971C27.7686 46.0971 27.7941 45.1499 27.7188 44.8976L27.6428 44.6459L28.6196 44.3727C28.6196 44.3727 28.6305 45.2314 28.61 45.2363C28.5895 45.2412 27.7678 46.0976 27.7678 46.0976L27.7686 46.0971Z" fill="#6B7B3E"/>
<path d="M27.7689 46.0971C28.4451 45.7581 29.0616 45.6519 29.0616 45.6519L28.62 44.3727L27.7689 46.0971Z" fill="#4B5B19"/>
<path d="M29.3307 46.901C29.3307 46.901 29.1156 45.9779 28.979 45.7538L28.8423 45.5298L29.7182 45.0184C29.7182 45.0184 29.9458 45.8466 29.9272 45.8559C29.9082 45.8665 29.3299 46.9016 29.3299 46.9016L29.3307 46.901Z" fill="#6B7B3E"/>
<path d="M29.3301 46.901C29.8994 46.4018 30.4683 46.1439 30.4683 46.1439L29.7176 45.0184L29.3293 46.9016L29.3301 46.901Z" fill="#4B5B19"/>
<path d="M28.1207 21.7826C28.1207 21.7826 29.0013 22.1342 29.2634 22.1501L29.5254 22.166L29.4438 23.1775C29.4438 23.1775 28.6347 22.8909 28.6366 22.8703C28.6393 22.8492 28.12 21.7831 28.12 21.7831L28.1207 21.7826Z" fill="#6B7B3E"/>
<path d="M28.1209 21.7826C28.2048 22.5348 28.0916 23.1496 28.0916 23.1496L29.4448 23.177L28.1217 21.782L28.1209 21.7826Z" fill="#4B5B19"/>
<path d="M24.9961 25.3745C24.9961 25.3745 25.9432 25.4148 26.1963 25.3425L26.4486 25.2706L26.7075 26.2515C26.7075 26.2515 25.8491 26.2496 25.8442 26.2291C25.8393 26.2085 24.9961 25.3745 24.9961 25.3745Z" fill="#6B7B3E"/>
<path d="M24.9961 25.3745C25.3252 26.0563 25.421 26.6742 25.421 26.6742L26.7067 26.252L24.9961 25.3745Z" fill="#4B5B19"/>
<path d="M25.8066 24.0875C25.8066 24.0875 26.7537 24.1278 27.0068 24.0555L27.2591 23.9836L27.518 24.9645C27.518 24.9645 26.6596 24.9626 26.6548 24.9421C26.6499 24.9215 25.8066 24.0875 25.8066 24.0875Z" fill="#6B7B3E"/>
<path d="M25.8066 24.0876C26.1358 24.7693 26.2316 25.3872 26.2316 25.3872L27.5172 24.965L25.8066 24.0876Z" fill="#4B5B19"/>
<path d="M26.873 22.8483C26.873 22.8483 27.8021 23.0373 28.0629 23.0063L28.3236 22.9753L28.4249 23.9851C28.4249 23.9851 27.578 23.8481 27.5759 23.8267C27.5739 23.8054 26.8736 22.849 26.8736 22.849L26.873 22.8483Z" fill="#6B7B3E"/>
<path d="M26.874 22.8482C27.0915 23.5731 27.0891 24.1987 27.0891 24.1987L28.4253 23.9842L26.874 22.8482Z" fill="#4B5B19"/>
<path d="M22.7695 31.3103C22.7695 31.3103 23.6654 31.0001 23.8741 30.8409L24.0828 30.6817L24.683 31.4994C24.683 31.4994 23.8833 31.8123 23.8717 31.7952C23.86 31.7781 22.7695 31.3103 22.7695 31.3103Z" fill="#6B7B3E"/>
<path d="M22.7695 31.3103C23.3253 31.8241 23.6415 32.3634 23.6415 32.3634L24.683 31.4994L22.7695 31.3103Z" fill="#4B5B19"/>
<path d="M23.0391 29.9685C23.0391 29.9685 23.935 29.6583 24.1437 29.4991L24.3524 29.3399L24.9525 30.1576C24.9525 30.1576 24.1528 30.4705 24.1412 30.4534C24.1296 30.4363 23.0391 29.9685 23.0391 29.9685Z" fill="#6B7B3E"/>
<path d="M23.0391 29.9685C23.5948 30.4823 23.911 31.0217 23.911 31.0217L24.9525 30.1576L23.0391 29.9685Z" fill="#4B5B19"/>
<path d="M23.4832 28.3866C23.4832 28.3866 24.4143 28.2115 24.6447 28.0842L24.8743 27.9573L25.3479 28.8544C25.3479 28.8544 24.5115 29.0468 24.5022 29.0281C24.4929 29.0094 23.4824 28.3871 23.4824 28.3871L23.4832 28.3866Z" fill="#6B7B3E"/>
<path d="M23.4824 28.3866C23.9568 28.9762 24.1904 29.556 24.1904 29.556L25.3479 28.8539L23.4824 28.3866Z" fill="#4B5B19"/>
<path d="M24.1875 26.8872C24.1875 26.8872 25.1312 26.7991 25.3722 26.694L25.6133 26.589L26.0015 27.526C26.0015 27.526 25.1503 27.6398 25.1433 27.6195C25.1355 27.5998 24.1883 26.8867 24.1883 26.8867L24.1875 26.8872Z" fill="#6B7B3E"/>
<path d="M24.1869 26.8872C24.6046 27.5189 24.7831 28.118 24.7831 28.118L26.0001 27.5266L24.1861 26.8877L24.1869 26.8872Z" fill="#4B5B19"/>
<path d="M22.6035 32.769C22.6035 32.769 23.4994 32.4589 23.7081 32.2997L23.9168 32.1405L24.517 32.9582C24.517 32.9582 23.7173 33.271 23.7056 33.2539C23.694 33.2368 22.6035 32.769 22.6035 32.769Z" fill="#6B7B3E"/>
<path d="M22.6035 32.769C23.1592 33.2828 23.4755 33.8222 23.4755 33.8222L24.517 32.9582L22.6035 32.769Z" fill="#4B5B19"/>
<path d="M22.3811 34.3637C22.3811 34.3637 23.1807 33.8554 23.3478 33.6518L23.5141 33.4487L24.2867 34.1057C24.2867 34.1057 23.5808 34.5946 23.5652 34.5801C23.5497 34.5657 22.3806 34.3629 22.3806 34.3629L22.3811 34.3637Z" fill="#6B7B3E"/>
<path d="M22.3809 34.3636C23.0399 34.7354 23.4728 35.1874 23.4728 35.1874L24.287 34.1065L22.3814 34.3644L22.3809 34.3636Z" fill="#4B5B19"/>
<path d="M23.1877 35.1523C23.1877 35.1523 23.9873 34.644 24.1544 34.4404L24.3207 34.2373L25.0934 34.8943C25.0934 34.8943 24.3874 35.3832 24.3719 35.3687C24.3563 35.3543 23.1872 35.1515 23.1872 35.1515L23.1877 35.1523Z" fill="#6B7B3E"/>
<path d="M23.1875 35.1522C23.8473 35.5235 24.2794 35.976 24.2794 35.976L25.0937 34.895L23.188 35.153L23.1875 35.1522Z" fill="#4B5B19"/>
<path d="M23.553 33.6122C23.553 33.6122 24.3526 33.1039 24.5196 32.9003L24.6859 32.6973L25.4586 33.3543C25.4586 33.3543 24.7526 33.8431 24.7371 33.8287C24.7216 33.8142 23.5524 33.6115 23.5524 33.6115L23.553 33.6122Z" fill="#6B7B3E"/>
<path d="M23.5527 33.6122C24.2126 33.9834 24.6447 34.4359 24.6447 34.4359L25.4589 33.355L23.5533 33.613L23.5527 33.6122Z" fill="#4B5B19"/>
<path d="M23.7737 32.007C23.7737 32.007 24.5733 31.4987 24.7403 31.2951L24.9066 31.092L25.6798 31.7498C25.6798 31.7498 24.9738 32.2387 24.9583 32.2242C24.9428 32.2098 23.7737 32.007 23.7737 32.007Z" fill="#6B7B3E"/>
<path d="M23.7734 32.007C24.4333 32.3782 24.8654 32.8307 24.8654 32.8307L25.6796 31.7498L23.774 32.0077L23.7734 32.007Z" fill="#4B5B19"/>
<path d="M24.4043 29.668C24.4043 29.668 25.3247 29.4422 25.548 29.3027L25.7704 29.1637L26.2924 30.0335C26.2924 30.0335 25.4677 30.2713 25.4571 30.2524C25.4465 30.2334 24.4043 29.668 24.4043 29.668Z" fill="#6B7B3E"/>
<path d="M24.4043 29.668C24.9102 30.2305 25.1752 30.798 25.1752 30.798L26.2924 30.0335L24.4043 29.668Z" fill="#4B5B19"/>
<path d="M24.7637 27.9607C24.7637 27.9607 25.6841 27.735 25.9073 27.5954L26.1298 27.4564L26.6518 28.3262C26.6518 28.3262 25.8271 28.564 25.8165 28.5451C25.8059 28.5262 24.7637 27.9607 24.7637 27.9607Z" fill="#6B7B3E"/>
<path d="M24.7637 27.9607C25.2696 28.5232 25.5345 29.0907 25.5345 29.0907L26.6518 28.3262L24.7637 27.9607Z" fill="#4B5B19"/>
<path d="M22.5638 36.2153C22.5638 36.2153 23.2093 35.5209 23.3187 35.2827L23.4289 35.044L24.3427 35.4843C24.3427 35.4843 23.7838 36.1356 23.7647 36.1259C23.7455 36.1162 22.5638 36.2153 22.5638 36.2153Z" fill="#6B7B3E"/>
<path d="M22.5645 36.2153C23.296 36.4082 23.8288 36.7364 23.8288 36.7364L24.3434 35.4844L22.5645 36.2153Z" fill="#4B5B19"/>
<path d="M22.9417 37.2959C22.9417 37.2959 23.681 36.7025 23.8237 36.4814L23.9669 36.2611L24.8077 36.8296C24.8077 36.8296 24.1606 37.3931 24.1433 37.3811C24.126 37.369 22.9417 37.2959 22.9417 37.2959Z" fill="#6B7B3E"/>
<path d="M22.9414 37.2959C23.6378 37.5923 24.1173 37.9942 24.1173 37.9942L24.8074 36.8296L22.9414 37.2959Z" fill="#4B5B19"/>
<path d="M23.338 38.9225C23.338 38.9225 23.9199 38.1749 24.0081 37.9272L24.0963 37.6796L25.0453 38.0381C25.0453 38.0381 24.5457 38.7364 24.5263 38.728C24.507 38.7196 23.338 38.9225 23.338 38.9225Z" fill="#6B7B3E"/>
<path d="M23.3379 38.9226C24.0839 39.0499 24.6433 39.3304 24.6433 39.3304L25.0452 38.0381L23.3379 38.9226Z" fill="#4B5B19"/>
<path d="M23.9537 40.4721C23.9537 40.4721 24.3278 39.6011 24.3505 39.339L24.3731 39.0769L25.3819 39.1844C25.3819 39.1844 25.0751 39.9856 25.0539 39.9829C25.0328 39.9802 23.9532 40.4713 23.9532 40.4713L23.9537 40.4721Z" fill="#6B7B3E"/>
<path d="M23.9531 40.472C24.7071 40.4074 25.319 40.5363 25.319 40.5363L25.3813 39.1843L23.9526 40.4713L23.9531 40.472Z" fill="#4B5B19"/>
<path d="M24.5175 41.656C24.5175 41.656 25.0557 40.8756 25.1292 40.6232L25.2028 40.3707L26.171 40.674C26.171 40.674 25.7128 41.3999 25.6919 41.3925C25.6723 41.3854 24.517 41.6552 24.517 41.6552L24.5175 41.656Z" fill="#6B7B3E"/>
<path d="M24.5176 41.656C25.2697 41.7405 25.8441 41.988 25.8441 41.988L26.1716 40.6749L24.5176 41.656Z" fill="#4B5B19"/>
<path d="M25.282 43.073C25.282 43.073 25.6247 42.1893 25.6393 41.927L25.6526 41.6645L26.6646 41.7368C26.6646 41.7368 26.3856 42.5486 26.3649 42.5468C26.3438 42.5441 25.2826 43.0738 25.2826 43.0738L25.282 43.073Z" fill="#6B7B3E"/>
<path d="M25.2812 43.073C26.0328 42.9816 26.6486 43.0896 26.6486 43.0896L26.6638 41.7368L25.2812 43.073Z" fill="#4B5B19"/>
<path d="M26.5269 44.4564C26.5269 44.4564 26.6358 43.5149 26.5824 43.258L26.529 43.0011L27.5265 42.815C27.5265 42.815 27.4615 43.6708 27.4412 43.6744C27.4204 43.6772 26.5266 44.4577 26.5266 44.4577L26.5269 44.4564Z" fill="#6B7B3E"/>
<path d="M26.5275 44.4564C27.2314 44.1782 27.8545 44.1266 27.8545 44.1266L27.5274 42.8137L26.5275 44.4564Z" fill="#4B5B19"/>
<path d="M27.4721 45.1028C27.4721 45.1028 27.7154 44.1868 27.7003 43.9243L27.6852 43.6618L28.699 43.6214C28.699 43.6214 28.5116 44.4595 28.49 44.4595C28.4684 44.4594 27.4721 45.1028 27.4721 45.1028Z" fill="#6B7B3E"/>
<path d="M27.4723 45.1028C28.2085 44.9286 28.8332 44.968 28.8332 44.968L28.6992 43.6214L27.4723 45.1028Z" fill="#4B5B19"/>
<path d="M28.7549 46.1785C28.7549 46.1785 28.7804 45.2313 28.7052 44.9791L28.6292 44.7273L29.606 44.4541C29.606 44.4541 29.6169 45.3129 29.5963 45.3178C29.5758 45.3227 28.7541 46.179 28.7541 46.179L28.7549 46.1785Z" fill="#6B7B3E"/>
<path d="M28.7553 46.1785C29.4315 45.8395 30.048 45.7333 30.048 45.7333L29.6063 44.4541L28.7553 46.1785Z" fill="#4B5B19"/>
<path d="M30.3151 46.983C30.3151 46.983 30.1 46.0598 29.9633 45.8358L29.8266 45.6117L30.7025 45.1003C30.7025 45.1003 30.9302 45.9285 30.9115 45.9378C30.8926 45.9484 30.3143 46.9835 30.3143 46.9835L30.3151 46.983Z" fill="#6B7B3E"/>
<path d="M30.3145 46.9829C30.8838 46.4837 31.4527 46.2258 31.4527 46.2258L30.7019 45.1003L30.3137 46.9835L30.3145 46.9829Z" fill="#4B5B19"/>
<path d="M23.9605 36.3948C23.9605 36.3948 24.7778 35.9142 24.9504 35.7171L25.1238 35.5194L25.8738 36.2032C25.8738 36.2032 25.1522 36.6675 25.1362 36.6523C25.1214 36.6373 23.96 36.394 23.96 36.394L23.9605 36.3948Z" fill="#6B7B3E"/>
<path d="M23.9609 36.3948C24.6069 36.7891 25.0236 37.2555 25.0236 37.2555L25.8743 36.2032L23.9609 36.3948Z" fill="#4B5B19"/>
<path d="M23.9449 35.4878C23.9449 35.4878 24.7622 35.0072 24.9348 34.8101L25.1082 34.6124L25.8582 35.2962C25.8582 35.2962 25.1366 35.7605 25.1205 35.7453C25.1058 35.7303 23.9443 35.4871 23.9443 35.4871L23.9449 35.4878Z" fill="#6B7B3E"/>
<path d="M23.9453 35.4878C24.5913 35.8821 25.0079 36.3486 25.0079 36.3486L25.8586 35.2962L23.9453 35.4878Z" fill="#4B5B19"/>
<path d="M24.146 38.1669C24.146 38.1669 24.9634 37.6863 25.136 37.4892L25.3094 37.2915L26.0594 37.9753C26.0594 37.9753 25.3378 38.4396 25.3217 38.4243C25.307 38.4094 24.1455 38.1661 24.1455 38.1661L24.146 38.1669Z" fill="#6B7B3E"/>
<path d="M24.1465 38.1669C24.7925 38.5612 25.2091 39.0276 25.2091 39.0276L26.0598 37.9753L24.1465 38.1669Z" fill="#4B5B19"/>
<path d="M37.4522 20.8219C37.4522 20.8219 37.1555 21.8049 37.1618 22.0894L37.1693 22.3741L36.07 22.3807C36.07 22.3807 36.3036 21.4804 36.3258 21.4812C36.3487 21.4815 37.4508 20.8217 37.4508 20.8217L37.4522 20.8219Z" fill="#6B7B3E"/>
<path d="M37.4524 20.822C36.6483 20.9832 35.9743 20.9183 35.9743 20.9183L36.0708 22.3815L37.4524 20.822Z" fill="#4B5B19"/>
<path d="M38.667 21.7494C38.667 21.7494 38.3704 22.7324 38.3766 23.0169L38.3841 23.3016L37.2848 23.3082C37.2848 23.3082 37.5184 22.4079 37.5414 22.4082C37.5643 22.4085 38.6665 21.7486 38.6665 21.7486L38.667 21.7494Z" fill="#6B7B3E"/>
<path d="M38.6672 21.7494C37.8631 21.9107 37.1892 21.8458 37.1892 21.8458L37.2856 23.309L38.6672 21.7494Z" fill="#4B5B19"/>
<path d="M38.5306 23.2854C38.5306 23.2854 38.0026 24.1656 37.9397 24.4438L37.8776 24.7214L36.8103 24.4595C36.8103 24.4595 37.2571 23.6436 37.2788 23.6504C37.3013 23.6567 38.5312 23.2861 38.5312 23.2861L38.5306 23.2854Z" fill="#6B7B3E"/>
<path d="M38.5314 23.2854C37.7128 23.2451 37.0744 23.0172 37.0744 23.0172L36.8097 24.4593L38.5319 23.2862L38.5314 23.2854Z" fill="#4B5B19"/>
<path d="M37.4302 22.7575C37.4302 22.7575 37.1265 23.7385 37.1319 24.0235L37.1374 24.3086L36.038 24.3083C36.038 24.3083 36.2774 23.4098 36.3003 23.4101C36.3238 23.4112 37.4302 22.7575 37.4302 22.7575Z" fill="#6B7B3E"/>
<path d="M37.431 22.7575C36.6258 22.9138 35.952 22.8442 35.952 22.8442L36.0388 24.3083L37.4302 22.758L37.431 22.7575Z" fill="#4B5B19"/>
<path d="M36.0408 20.8606C36.0408 20.8606 35.7575 21.8481 35.7687 22.1315L35.7796 22.4162L34.6807 22.4384C34.6807 22.4384 34.9013 21.5356 34.925 21.5354C34.9479 21.5357 36.0416 20.86 36.0416 20.86L36.0408 20.8606Z" fill="#6B7B3E"/>
<path d="M36.0416 20.8605C35.24 21.0337 34.565 20.9774 34.565 20.9774L34.682 22.4391L36.0421 20.8613L36.0416 20.8605Z" fill="#4B5B19"/>
<path d="M34.5809 19.013C34.5809 19.013 34.675 20.0356 34.7891 20.2966L34.9033 20.5576L33.8878 20.9776C33.8878 20.9776 33.7658 20.0559 33.7863 20.0476C33.8081 20.0396 34.5809 19.013 34.5809 19.013Z" fill="#6B7B3E"/>
<path d="M34.5813 19.013C33.8971 19.4654 33.2473 19.658 33.2473 19.658L33.8869 20.9774L34.5813 19.013Z" fill="#4B5B19"/>
<path d="M32.7738 18.7916C32.7738 18.7916 33.43 19.5814 33.671 19.7332L33.9122 19.8838L33.3117 20.8044C33.3117 20.8044 32.6895 20.1131 32.7026 20.0939C32.7157 20.0747 32.7738 18.7916 32.7738 18.7916Z" fill="#6B7B3E"/>
<path d="M32.7729 18.7916C32.4639 19.5512 32.0373 20.0781 32.0373 20.0781L33.3107 20.8044L32.7729 18.7916Z" fill="#4B5B19"/>
<path d="M31.9476 19.7682C31.9476 19.7682 32.6038 20.5579 32.8448 20.7098L33.086 20.8604L32.4855 21.781C32.4855 21.781 31.8634 21.0896 31.877 21.0712C31.8901 21.0521 31.9482 19.7689 31.9482 19.7689L31.9476 19.7682Z" fill="#6B7B3E"/>
<path d="M31.9467 19.7682C31.6377 20.5277 31.2112 21.0547 31.2112 21.0547L32.4845 21.781L31.9467 19.7682Z" fill="#4B5B19"/>
<path d="M34.7946 20.5572C34.7946 20.5572 34.5766 21.5605 34.606 21.844L34.6362 22.1269L33.5412 22.2215C33.5412 22.2215 33.7019 21.306 33.7246 21.3042C33.7478 21.3032 34.7938 20.5577 34.7938 20.5577L34.7946 20.5572Z" fill="#6B7B3E"/>
<path d="M34.7941 20.5572C34.0057 20.7816 33.3284 20.7702 33.3284 20.7702L33.5414 22.221L34.7948 20.5567L34.7941 20.5572Z" fill="#4B5B19"/>
<path d="M33.2034 20.3763C33.2034 20.3763 32.2766 21.3703 31.9722 21.2706C31.6672 21.1715 31.5507 20.6518 31.5507 20.6518C31.5507 20.6518 31.247 21.2906 30.865 21.4258C30.4831 21.5609 30.3135 20.9649 30.3135 20.9649L30.2549 21.2276C30.1963 21.4903 30.06 21.8627 29.837 21.9442C29.6145 22.0264 29.2825 21.4989 29.2825 21.4989C29.2825 21.4989 29.4448 22.0442 29.0399 22.5145C28.6355 22.9854 27.9986 22.2757 27.9986 22.2757C27.9986 22.2757 28.1469 22.6771 28.2422 23.0021C28.3109 23.2349 28.2854 23.4661 28.1748 23.6107C28.1982 23.5016 28.2062 23.4483 28.1924 23.468C28.1659 23.5076 28.1413 23.5801 28.1149 23.6731C28.0821 23.7 28.0448 23.722 28.0027 23.737C27.754 23.8223 27.0696 23.4519 27.0696 23.4519C27.0696 23.4519 27.768 24.6506 27.5957 24.935C27.5625 24.9781 27.5282 25.0196 27.4916 25.0593C26.9947 25.5831 25.9551 25.1682 25.9551 25.1682C25.9551 25.1682 26.9594 26.2972 26.5645 26.6286C26.1697 26.9601 25.1929 27.0514 25.1929 27.0514C25.1929 27.0514 26.5457 27.8192 26.2501 28.3081C25.9551 28.7978 25.0712 29.0338 25.0712 29.0338C25.0712 29.0338 25.1454 29.0526 25.5956 29.3314C25.9907 29.576 26.0931 29.8916 25.9999 30.237C25.5531 30.6858 24.6232 30.5189 24.6232 30.5189C24.6232 30.5189 25.8338 31.4233 25.5144 31.8272C25.1951 32.2312 24.2557 32.5175 24.2557 32.5175C24.2557 32.5175 25.7348 32.9968 25.544 33.5361C25.3532 34.0753 24.5346 34.4839 24.5346 34.4839C24.5346 34.4839 24.611 34.4876 25.1079 34.6697C25.36 34.7629 25.5203 34.8981 25.6077 35.0647C25.6103 35.1369 25.6079 35.2169 25.5955 35.3038C25.5354 35.7346 24.6355 35.6417 24.6355 35.6417C24.6355 35.6417 25.4806 36.1448 25.5379 36.5843C25.5952 37.0239 24.5604 37.2502 24.5604 37.2502C24.5604 37.2502 25.7171 37.6934 25.6995 38.0214C25.6811 38.3499 24.9439 39.1499 24.9822 39.1795C25.0205 39.2091 26.0599 39.1513 26.0599 39.1513L25.295 40.2111L26.1671 40.0445L25.3646 41.5949L26.4912 41.3663L26.0209 42.9689L27.2993 42.5811L27.236 43.4427L27.6992 43.3318C27.6992 43.3318 29.1283 45.5582 30.4865 45.663C33.5021 45.8948 36.8643 43.5431 37.8733 37.7485C38.1951 35.9014 38.2954 32.2388 38.292 31.4579C38.2826 29.3864 37.6821 26.5274 37.3273 25.6494C35.5773 21.3214 33.709 21.1436 33.3679 21.1952C33.0268 21.2468 33.1995 20.3756 33.1995 20.3756L33.2034 20.3763Z" fill="#FFE6C1"/>
<path d="M27.594 27.7782C26.9966 29.5663 26.5093 33.6403 26.6138 35.2538C26.7177 36.8665 26.7342 38.7081 27.3283 39.9324C27.9224 41.1566 29.1362 42.8033 29.3131 43.4819C29.49 44.1605 30.2768 45.6127 31.468 45.2504C32.6596 44.8888 33.1386 44.6774 34.8878 42.5094C36.6363 40.3419 37.4132 38.4554 37.4766 36.5491C37.5404 34.6437 37.2236 33.4511 37.2004 32.2188C37.1654 30.3067 36.2771 24.8224 34.2115 22.4908C33.2384 21.3928 30.0596 20.3923 27.5929 27.7767L27.594 27.7782Z" fill="#F4C895"/>
<path d="M27.3805 34.4865C27.3805 34.4865 27.351 38.4215 27.6901 39.4034C28.0293 40.3853 29.1164 41.6658 29.4466 42.2707C29.7768 42.8756 30.0955 43.5838 30.2352 44.0309C30.3749 44.4779 30.9647 45.0617 31.62 44.6688C32.2754 44.2758 33.2677 43.0008 34.0768 41.9608C34.8865 40.9216 36.083 39.3973 36.2925 38.7419C36.5019 38.0866 36.5031 37.0537 36.6233 35.4895C36.7426 33.9259 36.6006 32.6745 36.6348 32.3091C36.7838 30.7105 36.0156 27.3666 36.0156 27.3666L29.0255 34.879L27.3813 34.486L27.3805 34.4865Z" fill="#E77F40"/>
<path d="M30.7858 43.9925C30.9834 44.1774 31.2835 44.1991 31.5066 44.046C32.2693 43.5253 32.1472 43.1425 34.6208 40.1355C35.7737 38.7341 36.0886 36.603 36.0822 35.4355C36.0752 34.2671 36.6578 31.6547 36.2964 28.6226C35.9349 25.5905 34.3806 22.9799 33.4834 22.4555C32.7956 22.0532 29.5825 21.8685 28.327 26.4419C27.0716 31.0153 27.18 33.8629 27.3456 36.0951C27.5112 38.3274 27.7404 39.5217 29.289 41.3996C30.98 43.4499 30.3003 43.54 30.7851 43.993L30.7858 43.9925Z" fill="#FFCA00"/>
<path d="M30.3148 23.6066C30.0425 23.916 29.8152 24.2698 29.6181 24.6314C28.8066 26.1151 28.4168 27.814 28.5025 29.4835C28.5557 30.526 28.9061 31.4059 29.3624 32.3261C29.7637 33.1338 30.934 33.1198 31.6555 32.7421C32.3738 32.3664 32.8237 31.6269 33.1544 30.8924C34.1586 28.6669 34.6711 25.8466 33.5292 23.6212C33.2576 23.0923 32.8684 22.6777 32.2309 22.6413C31.796 22.617 31.3613 22.7699 30.9934 23.0091C30.7381 23.175 30.5135 23.3792 30.3135 23.6063L30.3148 23.6066Z" fill="#FFDF82"/>
<path d="M28.0319 38.7205C28.0303 38.7648 28.0338 38.8101 28.0424 38.8543C28.0868 39.1014 28.2176 39.3635 28.3269 39.5891C28.4629 39.8705 28.6235 40.1396 28.8051 40.3945C29.4661 41.3265 30.2339 41.9732 30.4033 42.5489C30.5727 43.1247 30.772 43.6641 31.1357 43.5573C31.4981 43.4503 31.932 42.5636 32.559 41.7285C33.1859 40.8933 34.2761 39.6585 34.6463 38.8686C35.0157 38.0793 35.2718 36.3226 35.3436 35.5234C35.4153 34.7243 35.5599 33.3879 35.6142 32.7201C35.6691 32.053 35.0596 32.1544 34.4712 34.4797C33.8828 36.8049 33.0711 38.2968 32.0567 39.289C31.5785 39.7568 30.9113 39.9738 30.2491 39.9178C29.9875 39.8959 29.724 39.8345 29.487 39.7185C29.1652 39.5615 28.9895 39.2651 28.7643 38.9946C28.6261 38.8284 28.4863 38.6633 28.344 38.5011C28.3034 38.4548 28.2495 38.404 28.1896 38.4164C28.1538 38.4237 28.1267 38.4524 28.1061 38.4823C28.0592 38.5518 28.0373 38.6349 28.034 38.7202L28.0319 38.7205Z" fill="#FFB41A"/>
<path d="M27.9963 36.2354C27.8959 36.1981 27.7855 36.263 27.7688 36.3687C27.7453 36.5178 27.7858 36.7391 28.108 36.9618C28.6701 37.3497 29.8904 37.6677 30.1958 37.4619C30.502 37.2556 30.2031 37.0637 29.6787 36.9764C29.1548 36.8899 28.7655 36.7822 28.5319 36.6162C28.2984 36.4502 28.1106 36.2781 27.9989 36.2359C27.9984 36.2351 27.9971 36.2349 27.9958 36.2346L27.9963 36.2354Z" fill="#FFB41A"/>
<path d="M28.2145 37.6088C28.3355 37.7231 29.2839 38.1808 29.539 38.2116C29.795 38.2419 29.6972 38.3403 29.5904 38.3687C29.4836 38.3972 28.9091 38.1746 28.5185 37.9383C28.1279 37.7019 27.9723 37.6271 28.0112 37.5757C28.05 37.5242 28.2145 37.6088 28.2145 37.6088Z" fill="#FFB41A"/>
<path d="M32.6461 35.7935C33.1978 35.9759 34.4265 36.0608 34.9718 35.8234C35.5164 35.5866 35.732 34.2928 35.357 34.3413C34.9812 34.3904 34.3345 35.0697 33.6517 35.1086C32.9688 35.1474 32.5453 35.1949 32.4278 35.4045C32.3103 35.6142 32.5405 35.7586 32.6461 35.7935Z" fill="#FFB41A"/>
<path d="M27.8826 32.819C27.8826 32.819 27.8737 34.4097 27.9523 34.9506C28.0309 35.4916 28.8212 36.1878 29.4787 36.2469C30.1362 36.306 31.4096 35.6239 31.6478 34.6068C31.8867 33.5892 31.0726 33.5538 30.1309 33.4564C29.1893 33.3589 28.7312 31.9705 28.3259 31.9646C27.9206 31.9587 27.8813 32.8188 27.8813 32.8188L27.8826 32.819Z" fill="#FFDF82"/>
</svg>
