<svg width="21" height="25" viewBox="0 0 21 25" fill="none" xmlns="http://www.w3.org/2000/svg">
<path d="M7.52941 19.1562L11.6622 15.0066C12.4207 14.2593 12.9339 13.378 13.2016 12.363C13.4581 11.3702 13.4581 10.3774 13.2016 9.38466C12.9339 8.36959 12.4235 7.48558 11.6706 6.73264C10.9176 5.97969 10.0336 5.46937 9.01856 5.20166C8.02579 4.9451 7.03303 4.9451 6.04026 5.20166C5.02519 5.46937 4.14118 5.97969 3.38824 6.73264C2.63529 7.48558 2.12497 8.36959 1.85725 9.38466C1.6007 10.3774 1.6007 11.3702 1.85725 12.363C2.12497 13.378 2.63808 14.2593 3.3966 15.0066L7.52941 19.1562ZM7.52941 21.5154L2.20863 16.1946C1.23817 15.2353 0.585621 14.0975 0.25098 12.7813C-0.0836601 11.5096 -0.0836601 10.238 0.25098 8.96636C0.585621 7.65011 1.23538 6.50954 2.20026 5.54466C3.16514 4.57978 4.30571 3.92444 5.62196 3.57865C6.89359 3.25516 8.16523 3.25516 9.43686 3.57865C10.7531 3.92444 11.8937 4.57978 12.8586 5.54466C13.8234 6.50954 14.4732 7.65011 14.8078 8.96636C15.1425 10.238 15.1425 11.5096 14.8078 12.7813C14.4732 14.0975 13.8207 15.2353 12.8502 16.1946L7.52941 21.5154ZM7.52941 12.547C7.83059 12.547 8.10946 12.4717 8.36601 12.3211C8.62257 12.1705 8.82614 11.967 8.97673 11.7104C9.12732 11.4539 9.20261 11.175 9.20261 10.8738C9.20261 10.5726 9.12732 10.2938 8.97673 10.0372C8.82614 9.78065 8.62257 9.57708 8.36601 9.42649C8.10946 9.2759 7.83059 9.20061 7.52941 9.20061C7.22824 9.20061 6.94937 9.2759 6.69281 9.42649C6.43625 9.57708 6.23268 9.78065 6.08209 10.0372C5.9315 10.2938 5.85621 10.5726 5.85621 10.8738C5.85621 11.175 5.9315 11.4539 6.08209 11.7104C6.23268 11.967 6.43625 12.1705 6.69281 12.3211C6.94937 12.4717 7.22824 12.547 7.52941 12.547ZM7.52941 14.2202C6.92706 14.2202 6.36932 14.0696 5.85621 13.7685C5.34309 13.4673 4.93595 13.0601 4.63477 12.547C4.33359 12.0339 4.18301 11.4734 4.18301 10.8654C4.18301 10.2575 4.33359 9.69978 4.63477 9.19224C4.93595 8.68471 5.34309 8.28035 5.85621 7.97917C6.36932 7.678 6.92706 7.52741 7.52941 7.52741C8.13176 7.52741 8.6895 7.678 9.20261 7.97917C9.71573 8.28035 10.1229 8.68471 10.4241 9.19224C10.7252 9.69978 10.8758 10.2575 10.8758 10.8654C10.8758 11.4734 10.7252 12.0339 10.4241 12.547C10.1229 13.0601 9.71573 13.4673 9.20261 13.7685C8.6895 14.0696 8.13176 14.2202 7.52941 14.2202Z" fill="#F53E32"/>
</svg>
