<svg width="19" height="17" viewBox="0 0 19 17" fill="none" xmlns="http://www.w3.org/2000/svg">
<path d="M13.6367 0.397522C14.5117 0.397522 15.3167 0.625022 16.0517 1.08002C16.7867 1.53502 17.3642 2.15336 17.7842 2.93502C18.2276 3.75169 18.4492 4.65586 18.4492 5.64752C18.4492 7.00086 18.1342 8.30169 17.5042 9.55002C16.9676 10.6117 16.2034 11.6325 15.2117 12.6125C14.4417 13.3825 13.5259 14.135 12.4642 14.87C11.8692 15.2784 11.0876 15.7684 10.1192 16.34L9.69922 16.585L9.27922 16.34C8.31089 15.7684 7.52922 15.2784 6.93422 14.87C5.87255 14.135 4.95672 13.3825 4.18672 12.6125C3.19505 11.6325 2.43089 10.6117 1.89422 9.55002C1.26422 8.30169 0.949219 7.00086 0.949219 5.64752C0.949219 4.65586 1.17089 3.75169 1.61422 2.93502C2.03422 2.15336 2.61172 1.53502 3.34672 1.08002C4.08172 0.625022 4.88672 0.397522 5.76172 0.397522C6.52005 0.409189 7.27255 0.595856 8.01922 0.957521C8.64922 1.26086 9.20922 1.65752 9.69922 2.14752C10.1892 1.65752 10.7492 1.26086 11.3792 0.957521C12.1259 0.584188 12.8784 0.397522 13.6367 0.397522ZM10.5217 14.065C11.3151 13.5634 12.0209 13.0675 12.6392 12.5775C13.9692 11.5159 14.9726 10.425 15.6492 9.30502C16.3492 8.13836 16.6992 6.92502 16.6992 5.66502C16.6992 4.98836 16.5651 4.38169 16.2967 3.84502C16.0284 3.30836 15.6609 2.89419 15.1942 2.60252C14.7276 2.31085 14.2084 2.15919 13.6367 2.14752C13.1701 2.14752 12.6976 2.26127 12.2192 2.48877C11.7409 2.71627 11.3151 3.01669 10.9417 3.39002L9.69922 4.63252L8.45672 3.39002C8.08339 3.01669 7.65755 2.71627 7.17922 2.48877C6.70089 2.26127 6.22839 2.14752 5.76172 2.14752C5.20172 2.14752 4.68839 2.29919 4.22172 2.60252C3.75505 2.90586 3.38464 3.32294 3.11047 3.85377C2.8363 4.38461 2.69922 4.98836 2.69922 5.66502C2.69922 6.92502 3.04922 8.13836 3.74922 9.30502C4.42589 10.425 5.42922 11.5159 6.75922 12.5775C7.37755 13.0675 8.08339 13.5634 8.87672 14.065C9.12172 14.2167 9.39589 14.38 9.69922 14.555C10.0026 14.38 10.2767 14.2167 10.5217 14.065Z" fill="black"/>
</svg>
