<svg width="21" height="25" viewBox="0 0 21 25" fill="none" xmlns="http://www.w3.org/2000/svg">
<path d="M17.5686 4.9004C17.8029 4.9004 18.0009 4.98128 18.1626 5.14302C18.3244 5.30476 18.4052 5.50276 18.4052 5.73701V19.1226C18.4052 19.3569 18.3244 19.5549 18.1626 19.7166C18.0009 19.8784 17.8029 19.9592 17.5686 19.9592H2.5098C2.27556 19.9592 2.07756 19.8784 1.91582 19.7166C1.75407 19.5549 1.6732 19.3569 1.6732 19.1226V18.286H16.732V8.49779L10.0392 14.5213L1.6732 6.99191V5.73701C1.6732 5.50276 1.75407 5.30476 1.91582 5.14302C2.07756 4.98128 2.27556 4.9004 2.5098 4.9004H17.5686ZM6.69281 14.9396V16.6128H0V14.9396H6.69281ZM4.18301 10.7566V12.4298H0V10.7566H4.18301ZM16.3639 6.57361H3.71451L10.0392 12.2625L16.3639 6.57361Z" fill="#F53E32"/>
</svg>
