<svg width="35" height="36" viewBox="0 0 35 36" fill="none" xmlns="http://www.w3.org/2000/svg">
<rect x="0.5" y="1.41992" width="34" height="34" rx="4.5" fill="white"/>
<rect x="0.5" y="1.41992" width="34" height="34" rx="4.5" stroke="#E1DFDF"/>
<g clip-path="url(#clip0_8342_24746)">
<path d="M13 17.0033H16.1875L15.8333 18.4199H13V24.7949H11.5833V18.4199H8.75V17.0033H11.5833V15.6716C11.5833 15.0766 11.6117 14.6138 11.6683 14.2833C11.725 14.0094 11.8194 13.7449 11.9517 13.4899C12.2067 13.0271 12.5656 12.673 13.0283 12.4274C13.2739 12.2858 13.5383 12.1913 13.8217 12.1441C14.1522 12.078 14.615 12.0449 15.21 12.0449C15.5783 12.0449 15.8994 12.078 16.1733 12.1441V13.4616H15.21C14.7567 13.4616 14.4285 13.4758 14.2254 13.5041C14.0224 13.5324 13.8453 13.5891 13.6942 13.6741C13.4769 13.7874 13.3117 13.948 13.1983 14.1558C13.1228 14.3069 13.0708 14.4839 13.0425 14.687C13.0142 14.8901 12.9953 15.2183 12.9858 15.6716V17.0033H13Z" fill="black"/>
</g>
<defs>
<clipPath id="clip0_8342_24746">
<rect width="17.48" height="17" fill="white" transform="matrix(1 0 0 -1 8.75 26.9199)"/>
</clipPath>
</defs>
</svg>
