<svg width="35" height="36" viewBox="0 0 35 36" fill="none" xmlns="http://www.w3.org/2000/svg">
<rect x="0.5" y="1.41992" width="34" height="34" rx="4.5" fill="white"/>
<rect x="0.5" y="1.41992" width="34" height="34" rx="4.5" stroke="#E1DFDF"/>
<g clip-path="url(#clip0_8342_24752)">
<path d="M21.4858 18.1223C21.4575 17.5462 21.3489 16.9985 21.16 16.479C20.9711 15.9596 20.7114 15.4779 20.3808 15.034C20.1919 15.2323 19.9747 15.4401 19.7292 15.6573C19.0492 16.224 18.2653 16.6962 17.3775 17.074C17.5003 17.329 17.6089 17.5651 17.7033 17.7823L17.7742 17.9807C18.7847 17.8673 19.885 17.891 21.075 18.0515L21.4858 18.1223ZM14.8417 12.8382C14.9739 13.0176 15.1108 13.216 15.2525 13.4332C15.7153 14.1037 16.1356 14.7743 16.5133 15.4448L16.7542 15.8698C17.5853 15.5393 18.3031 15.119 18.9075 14.609C19.1247 14.4296 19.3136 14.2501 19.4742 14.0707C18.9736 13.6551 18.4164 13.334 17.8025 13.1073C17.1697 12.8712 16.5133 12.7532 15.8333 12.7532C15.5028 12.7532 15.1722 12.7815 14.8417 12.8382ZM10.3508 17.0032C10.7947 16.9937 11.2764 16.9654 11.7958 16.9182C12.9953 16.8048 14.1428 16.6112 15.2383 16.3373C14.8417 15.6385 14.4025 14.9301 13.9208 14.2123C13.7131 13.9007 13.5147 13.6079 13.3258 13.334C12.5892 13.7023 11.9588 14.2053 11.4346 14.8428C10.9104 15.4803 10.5492 16.2004 10.3508 17.0032ZM11.4275 21.9898C11.7392 21.5365 12.1122 21.0879 12.5467 20.644C13.6422 19.5201 14.8606 18.741 16.2017 18.3065L16.2442 18.2923C16.1214 18.0373 16.0081 17.806 15.9042 17.5982C14.6575 17.9571 13.3117 18.2026 11.8667 18.3348C11.2528 18.3915 10.6861 18.4198 10.1667 18.4198C10.1667 19.0904 10.28 19.7326 10.5067 20.3465C10.7239 20.9415 11.0308 21.4893 11.4275 21.9898ZM17.9583 23.6757C17.8828 23.2601 17.7836 22.8257 17.6608 22.3723C17.4247 21.4279 17.1414 20.5118 16.8108 19.624C15.4508 20.1151 14.3081 20.8376 13.3825 21.7915C12.9953 22.1882 12.6836 22.5801 12.4475 22.9673C12.9292 23.3262 13.4581 23.6025 14.0342 23.7961C14.6103 23.9897 15.21 24.0865 15.8333 24.0865C16.57 24.0865 17.2783 23.9496 17.9583 23.6757ZM19.29 22.9107C19.8378 22.4857 20.2958 21.978 20.6642 21.3878C21.0325 20.7975 21.2781 20.1576 21.4008 19.4682C21.1269 19.3926 20.8342 19.336 20.5225 19.2982C19.7386 19.1848 18.9878 19.1754 18.27 19.2698C18.5817 20.1387 18.8461 21.0218 19.0633 21.919C19.1483 22.2685 19.2239 22.599 19.29 22.9107ZM15.8333 25.5032C14.87 25.5032 13.9492 25.319 13.0708 24.9507C12.2303 24.5918 11.4818 24.0841 10.8254 23.4278C10.169 22.7714 9.66139 22.0229 9.3025 21.1823C8.93417 20.304 8.75 19.3832 8.75 18.4198C8.75 17.4565 8.93417 16.5357 9.3025 15.6573C9.66139 14.8168 10.169 14.0683 10.8254 13.4119C11.4818 12.7555 12.2303 12.2479 13.0708 11.889C13.9492 11.5207 14.87 11.3365 15.8333 11.3365C16.7967 11.3365 17.7175 11.5207 18.5958 11.889C19.4364 12.2479 20.1849 12.7555 20.8413 13.4119C21.4976 14.0683 22.0053 14.8168 22.3642 15.6573C22.7325 16.5357 22.9167 17.4565 22.9167 18.4198C22.9167 19.3832 22.7325 20.304 22.3642 21.1823C22.0053 22.0229 21.4976 22.7714 20.8413 23.4278C20.1849 24.0841 19.4364 24.5918 18.5958 24.9507C17.7175 25.319 16.7967 25.5032 15.8333 25.5032Z" fill="black"/>
</g>
<defs>
<clipPath id="clip0_8342_24752">
<rect width="17.48" height="17" fill="white" transform="matrix(1 0 0 -1 8.75 26.9199)"/>
</clipPath>
</defs>
</svg>
