<svg width="35" height="36" viewBox="0 0 35 36" fill="none" xmlns="http://www.w3.org/2000/svg">
<rect x="0.5" y="1.41992" width="34" height="34" rx="4.5" fill="white"/>
<rect x="0.5" y="1.41992" width="34" height="34" rx="4.5" stroke="#E1DFDF"/>
<g clip-path="url(#clip0_8342_24755)">
<path d="M15.8333 16.2948C15.4461 16.2948 15.0896 16.3893 14.7638 16.5782C14.4379 16.7671 14.1806 17.0244 13.9917 17.3503C13.8028 17.6761 13.7083 18.0326 13.7083 18.4198C13.7083 18.8071 13.8028 19.1636 13.9917 19.4894C14.1806 19.8153 14.4379 20.0726 14.7638 20.2615C15.0896 20.4504 15.4461 20.5448 15.8333 20.5448C16.2206 20.5448 16.5771 20.4504 16.9029 20.2615C17.2288 20.0726 17.4861 19.8153 17.675 19.4894C17.8639 19.1636 17.9583 18.8071 17.9583 18.4198C17.9583 18.0326 17.8639 17.6761 17.675 17.3503C17.4861 17.0244 17.2288 16.7671 16.9029 16.5782C16.5771 16.3893 16.2206 16.2948 15.8333 16.2948ZM15.8333 14.8782C16.4756 14.8782 17.0682 15.0364 17.6112 15.3528C18.1543 15.6691 18.584 16.0989 18.9004 16.6419C19.2168 17.185 19.375 17.7776 19.375 18.4198C19.375 19.0621 19.2168 19.6547 18.9004 20.1978C18.584 20.7408 18.1543 21.1705 17.6112 21.4869C17.0682 21.8033 16.4756 21.9615 15.8333 21.9615C15.1911 21.9615 14.5985 21.8033 14.0554 21.4869C13.5124 21.1705 13.0826 20.7408 12.7663 20.1978C12.4499 19.6547 12.2917 19.0621 12.2917 18.4198C12.2917 17.7776 12.4499 17.185 12.7663 16.6419C13.0826 16.0989 13.5124 15.6691 14.0554 15.3528C14.5985 15.0364 15.1911 14.8782 15.8333 14.8782ZM20.4375 14.694C20.4375 14.9396 20.3501 15.1497 20.1754 15.3244C20.0007 15.4991 19.7929 15.5865 19.5521 15.5865C19.3113 15.5865 19.1035 15.4991 18.9288 15.3244C18.754 15.1497 18.6667 14.9419 18.6667 14.7011C18.6667 14.4603 18.754 14.2525 18.9288 14.0778C19.1035 13.903 19.3113 13.8157 19.5521 13.8157C19.7929 13.8157 20.0007 13.903 20.1754 14.0778C20.3501 14.2525 20.4375 14.4579 20.4375 14.694ZM15.8333 12.7532C14.9644 12.7532 14.3742 12.7555 14.0625 12.7603C13.7508 12.765 13.3919 12.7768 12.9858 12.7957C12.4758 12.8146 12.0508 12.8901 11.7108 13.0223C11.4181 13.1357 11.1607 13.3033 10.9388 13.5253C10.7168 13.7472 10.5492 14.0046 10.4358 14.2973C10.3036 14.6373 10.2281 15.0623 10.2092 15.5723C10.1903 15.9596 10.1785 16.3066 10.1738 16.6136C10.169 16.9205 10.1667 17.5226 10.1667 18.4198C10.1667 19.2887 10.169 19.879 10.1738 20.1907C10.1785 20.5023 10.1903 20.8612 10.2092 21.2673C10.2281 21.7773 10.3036 22.2023 10.4358 22.5423C10.5492 22.8351 10.7168 23.0925 10.9388 23.3144C11.1607 23.5364 11.4181 23.6993 11.7108 23.8032C12.0508 23.9448 12.4758 24.0251 12.9858 24.044C13.3731 24.0629 13.7201 24.0747 14.0271 24.0794C14.334 24.0841 14.9361 24.0865 15.8333 24.0865C16.7022 24.0865 17.2925 24.0841 17.6042 24.0794C17.9158 24.0747 18.2747 24.0629 18.6808 24.044C19.1908 24.0251 19.6158 23.9496 19.9558 23.8173C20.2486 23.704 20.506 23.5364 20.7279 23.3144C20.9499 23.0925 21.1128 22.8351 21.2167 22.5423C21.3583 22.2023 21.4386 21.7773 21.4575 21.2673C21.4764 20.8801 21.4882 20.533 21.4929 20.2261C21.4976 19.9191 21.5 19.3171 21.5 18.4198C21.5 17.551 21.4976 16.9607 21.4929 16.649C21.4882 16.3373 21.4764 15.9785 21.4575 15.5723C21.4386 15.0623 21.3631 14.6373 21.2308 14.2973C21.1175 14.0046 20.9499 13.7472 20.7279 13.5253C20.506 13.3033 20.2486 13.1357 19.9558 13.0223C19.6158 12.8901 19.1908 12.8146 18.6808 12.7957C18.2936 12.7768 17.9465 12.765 17.6396 12.7603C17.3326 12.7555 16.7306 12.7532 15.8333 12.7532ZM15.8333 11.3365C16.7589 11.3365 17.3917 11.3412 17.7317 11.3507C18.015 11.3507 18.355 11.3601 18.7517 11.379C19.4128 11.4073 19.9842 11.516 20.4658 11.7048C20.9475 11.8937 21.3678 12.1676 21.7267 12.5265C22.0856 12.8854 22.3594 13.3057 22.5483 13.7873C22.7372 14.269 22.8458 14.8404 22.8742 15.5015C22.8931 15.9076 22.9025 16.2476 22.9025 16.5215C22.9119 16.8804 22.9167 17.5179 22.9167 18.434C22.9167 19.3501 22.9119 19.9782 22.9025 20.3182C22.9025 20.6015 22.8931 20.9415 22.8742 21.3382C22.8458 21.9993 22.7372 22.5707 22.5483 23.0523C22.3594 23.534 22.0856 23.9543 21.7267 24.3132C21.3678 24.6721 20.9475 24.946 20.4658 25.1348C19.9842 25.3237 19.4128 25.4323 18.7517 25.4607C18.3456 25.4796 18.0056 25.489 17.7317 25.489C17.3728 25.4985 16.7353 25.5032 15.8192 25.5032C14.9031 25.5032 14.275 25.4985 13.935 25.489C13.6517 25.489 13.3117 25.4796 12.915 25.4607C12.2539 25.4323 11.6825 25.3237 11.2008 25.1348C10.7192 24.946 10.2989 24.6721 9.94 24.3132C9.58111 23.9543 9.30722 23.534 9.11833 23.0523C8.92944 22.5707 8.82083 21.9993 8.7925 21.3382C8.77361 20.9321 8.76417 20.5921 8.76417 20.3182C8.75472 19.9593 8.75 19.3218 8.75 18.4057C8.75 17.4896 8.75472 16.8615 8.76417 16.5215C8.76417 16.2382 8.77361 15.8982 8.7925 15.5015C8.82083 14.8404 8.92944 14.269 9.11833 13.7873C9.30722 13.3057 9.58111 12.8854 9.94 12.5265C10.2989 12.1676 10.7192 11.8937 11.2008 11.7048C11.6825 11.516 12.2539 11.4073 12.915 11.379C13.3211 11.3601 13.6611 11.3507 13.935 11.3507C14.2939 11.3412 14.9267 11.3365 15.8333 11.3365Z" fill="black"/>
</g>
<defs>
<clipPath id="clip0_8342_24755">
<rect width="17.48" height="17" fill="white" transform="matrix(1 0 0 -1 8.75 26.9199)"/>
</clipPath>
</defs>
</svg>
