<svg width="22" height="22" viewBox="0 0 22 22" fill="none" xmlns="http://www.w3.org/2000/svg">
<g clip-path="url(#clip0_8342_24744)">
<path d="M0.5825 8.0098C0.360833 7.92814 0.25 7.8348 0.25 7.7298C0.25 7.6248 0.366667 7.53147 0.6 7.44981L17.295 1.88481C17.5283 1.80314 17.7033 1.81772 17.82 1.92855C17.9367 2.03939 17.96 2.21147 17.89 2.44481L13.13 19.1398C13.06 19.3731 12.9667 19.4927 12.85 19.4986C12.7333 19.5044 12.6283 19.3965 12.535 19.1748L9.385 12.1048L14.635 5.1048L7.635 10.3548L0.5825 8.0098Z" fill="black"/>
</g>
<defs>
<clipPath id="clip0_8342_24744">
<rect width="21.48" height="21" fill="white" transform="matrix(1 0 0 -1 0.25 21.1699)"/>
</clipPath>
</defs>
</svg>
