<svg width="15" height="19" viewBox="0 0 15 19" fill="none" xmlns="http://www.w3.org/2000/svg">
<path d="M14.0293 18.6875H12.2793V16.9375C12.2793 16.4592 12.1626 16.0187 11.9293 15.6163C11.696 15.2137 11.378 14.8958 10.9755 14.6625C10.573 14.4292 10.1326 14.3125 9.6543 14.3125H4.4043C3.92596 14.3125 3.48555 14.4292 3.08305 14.6625C2.68055 14.8958 2.36263 15.2137 2.1293 15.6163C1.89596 16.0187 1.7793 16.4592 1.7793 16.9375V18.6875H0.0292969V16.9375C0.0292969 16.1442 0.224714 15.4121 0.615547 14.7413C1.00638 14.0704 1.53721 13.5396 2.20805 13.1487C2.87888 12.7579 3.61096 12.5625 4.4043 12.5625H9.6543C10.4476 12.5625 11.1797 12.7579 11.8505 13.1487C12.5214 13.5396 13.0522 14.0704 13.443 14.7413C13.8339 15.4121 14.0293 16.1442 14.0293 16.9375V18.6875ZM7.0293 10.8125C6.0843 10.8125 5.20346 10.5733 4.3868 10.095C3.59346 9.62833 2.96346 8.99833 2.4968 8.205C2.01846 7.38833 1.7793 6.5075 1.7793 5.5625C1.7793 4.6175 2.01846 3.73667 2.4968 2.92C2.96346 2.12667 3.59346 1.49667 4.3868 1.03C5.20346 0.551666 6.0843 0.3125 7.0293 0.3125C7.9743 0.3125 8.85513 0.551666 9.6718 1.03C10.4651 1.49667 11.0951 2.12667 11.5618 2.92C12.0401 3.73667 12.2793 4.6175 12.2793 5.5625C12.2793 6.5075 12.0401 7.38833 11.5618 8.205C11.0951 8.99833 10.4651 9.62833 9.6718 10.095C8.85513 10.5733 7.9743 10.8125 7.0293 10.8125ZM7.0293 9.0625C7.6593 9.0625 8.24263 8.905 8.7793 8.59C9.31596 8.275 9.7418 7.84917 10.0568 7.3125C10.3718 6.77583 10.5293 6.1925 10.5293 5.5625C10.5293 4.9325 10.3718 4.34917 10.0568 3.8125C9.7418 3.27583 9.31596 2.85 8.7793 2.535C8.24263 2.22 7.6593 2.0625 7.0293 2.0625C6.3993 2.0625 5.81596 2.22 5.2793 2.535C4.74263 2.85 4.3168 3.27583 4.0018 3.8125C3.6868 4.34917 3.5293 4.9325 3.5293 5.5625C3.5293 6.1925 3.6868 6.77583 4.0018 7.3125C4.3168 7.84917 4.74263 8.275 5.2793 8.59C5.81596 8.905 6.3993 9.0625 7.0293 9.0625Z" fill="black"/>
</svg>
